<svg width="25" height="25" fill="none" xmlns="http://www.w3.org/2000/svg"><path d="M21.484 7.813h.853a1.17 1.17 0 001.1.78 1.172 1.172 0 000-2.343 1.17 1.17 0 00-1.1.781h-.853V3.906h.853a1.17 1.17 0 001.1.781 1.172 1.172 0 000-2.343 1.17 1.17 0 00-1.1.781h-.853v-.781a.39.39 0 00-.39-.39H6.827A3.515 3.515 0 003.907.39 3.52 3.52 0 00.39 3.906v17.188a3.52 3.52 0 003.515 3.515h17.188a.39.39 0 00.39-.39v-.782h.853a1.17 1.17 0 001.1.782c.647 0 1.172-.526 1.172-1.172a1.17 1.17 0 00-2.272-.39h-.853V19.53h.853a1.17 1.17 0 001.1.782c.647 0 1.172-.526 1.172-1.172a1.17 1.17 0 00-2.272-.39h-.853v-3.126h.853a1.17 1.17 0 001.1.781c.647 0 1.172-.525 1.172-1.172a1.17 1.17 0 00-2.272-.39h-.853v-3.125h.853a1.17 1.17 0 001.1.781 1.173 1.173 0 000-2.344 1.17 1.17 0 00-1.1.781h-.853V7.813zm1.953-.782a.391.391 0 110 .783.391.391 0 010-.783zm0-3.906a.391.391 0 110 .783.391.391 0 010-.783zm-6.088 18.36l-.896-.896a1.486 1.486 0 01-.437-1.058c0-.399.155-.775.438-1.057l.457-.458a2.26 2.26 0 00.667-1.61 2.26 2.26 0 00-.667-1.61l-.458-.457a1.486 1.486 0 01-.437-1.058c0-.399.155-.775.438-1.057l.457-.458a2.26 2.26 0 00.667-1.61 2.26 2.26 0 00-.667-1.61l-.458-.457a1.486 1.486 0 01-.437-1.058c0-.399.155-.775.438-1.057l.895-.896h1.01v16.406h-1.01zM15.901 5.42a2.26 2.26 0 00-.667 1.61c0 .608.237 1.18.667 1.61l.458.458c.282.282.438.658.438 1.057 0 .4-.156.775-.438 1.058l-.458.457a2.26 2.26 0 00-.667 1.61c0 .608.237 1.18.667 1.61l.458.458c.282.282.438.658.438 1.057 0 .4-.156.775-.438 1.058l-.458.458a2.26 2.26 0 00-.667 1.61c0 .608.237 1.18.667 1.609l.343.343h-1.63l-.895-.895a1.486 1.486 0 01-.438-1.058c0-.399.156-.775.438-1.057l.458-.458a2.26 2.26 0 00.667-1.61 2.26 2.26 0 00-.667-1.61l-.458-.457a1.486 1.486 0 01-.438-1.058c0-.399.156-.775.438-1.057l.458-.458a2.26 2.26 0 00.667-1.61 2.26 2.26 0 00-.667-1.61l-.458-.457a1.486 1.486 0 01-.438-1.058c0-.399.156-.775.438-1.057l.896-.896h1.63l-.344.343zm-2.734 0a2.26 2.26 0 00-.667 1.61c0 .608.237 1.18.667 1.61l.458.458c.282.282.438.658.438 1.057 0 .4-.156.775-.438 1.058l-.458.457a2.26 2.26 0 00-.667 1.61c0 .608.237 1.18.667 1.61l.458.458c.282.282.438.658.438 1.057 0 .4-.156.775-.438 1.058l-.458.458a2.26 2.26 0 00-.667 1.61c0 .608.237 1.18.667 1.609l.343.343h-1.63l-.895-.895a1.486 1.486 0 01-.438-1.058c0-.399.155-.775.438-1.057l.458-.458a2.26 2.26 0 00.666-1.61 2.26 2.26 0 00-.666-1.61l-.458-.457a1.486 1.486 0 01-.438-1.058c0-.399.155-.775.438-1.057l.458-.458a2.26 2.26 0 00.666-1.61 2.26 2.26 0 00-.666-1.61l-.458-.457a1.486 1.486 0 01-.438-1.058c0-.399.155-.775.438-1.057l.896-.896h1.63l-.344.343zm-2.735 0a2.26 2.26 0 00-.666 1.61c0 .608.236 1.18.666 1.61l.458.458c.283.282.438.658.438 1.057 0 .4-.155.775-.438 1.058l-.458.457a2.26 2.26 0 00-.666 1.61c0 .608.236 1.18.666 1.61l.458.458c.283.282.438.658.438 1.057 0 .4-.155.775-.438 1.058l-.458.458a2.26 2.26 0 00-.666 1.61c0 .608.236 1.18.666 1.609l.344.343h-1.63l-.896-.895a1.486 1.486 0 01-.438-1.058c0-.399.156-.775.438-1.057l.458-.458a2.26 2.26 0 00.667-1.61 2.26 2.26 0 00-.667-1.61l-.458-.457a1.486 1.486 0 01-.438-1.058c0-.399.156-.775.438-1.057l.458-.458a2.26 2.26 0 00.667-1.61 2.26 2.26 0 00-.667-1.61L8.25 8.09a1.486 1.486 0 01-.438-1.058c0-.399.156-.775.438-1.057l.896-.896h1.63l-.344.343zm-3.01 2.885c.08.119.173.232.276.335l.458.458c.282.282.438.658.438 1.057 0 .4-.156.775-.438 1.058l-.458.457a2.282 2.282 0 00-.276.335v-3.7zm.734 7.043c.282.282.438.658.438 1.057 0 .4-.156.775-.438 1.058l-.458.458a2.282 2.282 0 00-.276.334v-3.7c.08.119.173.232.276.335l.458.458zm-.734 5.745v-.288c.08.119.173.232.276.335l.343.343H7.4a3.49 3.49 0 00.023-.39zM7.698 5.42a2.285 2.285 0 00-.276.335v-.678h.62l-.344.343zM1.172 3.906a2.737 2.737 0 012.734-2.734 2.737 2.737 0 012.735 2.734V18.89a3.509 3.509 0 00-5.47 0V3.906zm0 17.188a2.737 2.737 0 012.734-2.735 2.737 2.737 0 012.735 2.735 2.737 2.737 0 01-2.735 2.734 2.737 2.737 0 01-2.734-2.734zm19.531 2.734H6.111c.5-.405.886-.944 1.106-1.562H18.75a.39.39 0 00.39-.391V4.687a.39.39 0 00-.39-.39H7.422v-.39a3.49 3.49 0 00-.205-1.173h13.486v21.094zm2.735-1.172a.391.391 0 11-.002.783.391.391 0 01.002-.783zm0-3.906a.391.391 0 11-.002.783.391.391 0 01.002-.783zm0-3.906a.391.391 0 11-.002.782.391.391 0 01.002-.782zm0-3.906a.391.391 0 11-.002.782.391.391 0 01.002-.783z" fill="#000"/></svg>