<svg width="22" height="26" fill="none" xmlns="http://www.w3.org/2000/svg"><path d="M.273 11.817c0 1.161.742 2.192 1.873 2.64v1.096a.986.986 0 00-.598.906v2.18c0 .227.078.436.208.603a.978.978 0 00-.208.604v1.743c0 .543.441.985.984.985h.375l.07 2.496v.007A.945.945 0 003.95 26a.94.94 0 00.945-.797l.588-2.63h4.628a.38.38 0 100-.761H2.532a.226.226 0 01-.223-.223v-1.743c0-.121.102-.223.223-.223h16.935c.12 0 .223.102.223.223v1.743a.226.226 0 01-.223.223h-7.579a.38.38 0 100 .762h4.628l.588 2.629a.94.94 0 00.945.797c.54 0 .948-.386.973-.923v-.007l.07-2.496h.375a.986.986 0 00.984-.985v-1.743a.979.979 0 00-.208-.604.979.979 0 00.208-.604v-.2a.38.38 0 10-.762 0v.2a.226.226 0 01-.222.223H2.532a.226.226 0 01-.223-.223v-2.18a.226.226 0 01.233-.222h16.926c.12.001.221.102.221.223v.2a.38.38 0 10.762 0v-.2a.986.986 0 00-.598-.906v-1.096c1.13-.448 1.872-1.479 1.872-2.64 0-1.294-.925-2.39-2.192-2.748l.503-3.118a2.427 2.427 0 00-1.962-2.774 3.42 3.42 0 01-1.96-1.1c-.505-.568-1.176-1.042-1.995-1.41a7.626 7.626 0 00-6.24 0c-.818.368-1.49.842-1.995 1.41a3.42 3.42 0 01-1.96 1.1A2.427 2.427 0 001.963 5.95l.502 3.118C1.2 9.427.273 10.523.273 11.817zm4.43 10.757l-.554 2.472a.365.365 0 00-.004.02c-.026.16-.146.176-.214.172-.069-.004-.184-.035-.193-.193l-.069-2.471h1.033zm13.558 2.47c-.009.16-.124.19-.193.194-.07.004-.188-.013-.215-.171a.374.374 0 00-.004-.021l-.552-2.472h1.032l-.068 2.47zm-13.896-9.57H2.907v-1.167a.958.958 0 00-.427-.803 1.22 1.22 0 01.668-2.237c.762 0 1.217.633 1.217 1.246v2.961zm11.19 0H6.444v-.563a.62.62 0 01.62-.62h7.87a.62.62 0 01.621.62v.563zm0-3.657v1.86a1.385 1.385 0 00-.62-.148H7.064a1.39 1.39 0 00-.62.147v-1.859c0-1.028-.603-2.01-1.609-2.52l-.61-3.78c-.004-.029.017-.055.047-.06a5.74 5.74 0 003.333-1.848c.288-.324.698-.607 1.218-.84a5.32 5.32 0 014.354 0c.52.234.93.516 1.217.84a5.738 5.738 0 003.333 1.848c.03.005.05.031.046.06l-.61 3.78c-.968.492-1.608 1.454-1.608 2.52zm3.964 1.687a.958.958 0 00-.427.803v1.167h-1.459v-2.961a1.22 1.22 0 111.886.991zm1.445-1.687c0 .245-.047.482-.133.704a1.982 1.982 0 00-1.98-2.016c-1.11 0-1.98.882-1.98 2.008v2.961h-.554v-3.657c0-.787.498-1.548 1.33-1.907 1.527-.657 3.317.357 3.317 1.907zM4.068 3.925a4.166 4.166 0 002.385-1.341c.434-.488 1.019-.899 1.739-1.222 1.784-.8 3.83-.8 5.615 0 .72.323 1.305.734 1.739 1.222a4.165 4.165 0 002.385 1.34 1.669 1.669 0 011.353 1.906l-.503 3.12a3.292 3.292 0 00-.8.063l.544-3.376a.819.819 0 00-.667-.93 4.918 4.918 0 01-2.895-1.605c-.36-.404-.856-.75-1.474-1.028a6.083 6.083 0 00-4.978 0c-.619.278-1.115.624-1.475 1.028A4.919 4.919 0 014.14 4.706a.819.819 0 00-.667.931l.544 3.374a3.4 3.4 0 00-.8-.062l-.503-3.12a1.669 1.669 0 011.353-1.904zm-.71 5.783c1.253 0 2.324.922 2.324 2.11v3.655h-.555v-2.961c0-1.126-.87-2.008-1.98-2.008a1.982 1.982 0 00-1.98 2.016 1.935 1.935 0 01-.132-.704c0-1.183 1.066-2.11 2.324-2.11z" fill="#000"/></svg>