<svg width="122" height="94" fill="none" xmlns="http://www.w3.org/2000/svg"><path d="M96 34.29C96 53.226 71.327 79.9 58.4 94c-7.05-9.4-37.6-40.773-37.6-59.71C20.8 15.351 37.636 0 58.4 0 79.168 0 96 15.352 96 34.29z" fill="#98D8FC"/><circle cx="58.401" cy="37.6" r="25.85" fill="#fff"/><path fill-rule="evenodd" clip-rule="evenodd" d="M74.53 29.187c.014-.23.02-.461.02-.694 0-6.51-5.475-11.787-12.23-11.787-3.305 0-6.304 1.263-8.505 3.317a12.585 12.585 0 00-4.84-.96c-6.755 0-12.23 5.278-12.23 11.788 0 2.313.69 4.471 1.886 6.292a9.383 9.383 0 00-.542 3.138c0 6.51 6.77 11.787 15.121 11.787 2.714 0 5.26-.557 7.462-1.533a11.674 11.674 0 006.535 2.004c6.754 0 12.23-5.806 12.23-12.967 0-4.249-1.928-8.02-4.907-10.385z" fill="#98D8FC"/><path d="M47.585 43.153a1.658 1.658 0 000 3.314c.914 0 1.657-.743 1.657-1.657s-.743-1.657-1.657-1.657zm9.938-3.314a3.318 3.318 0 00-3.314 3.314 3.318 3.318 0 003.314 3.314 3.318 3.318 0 003.314-3.314 3.318 3.318 0 00-3.314-3.314zm0 4.143a.829.829 0 110-1.658.829.829 0 010 1.658zm15.859-2.486h-2.739a2.49 2.49 0 00-1.515-1.506V26.582a3.318 3.318 0 00-3.314-3.314 3.318 3.318 0 00-3.314 3.314v5.8a.83.83 0 01-.829.828h-.152a2.482 2.482 0 00-2.334-1.657v4.972c1.08 0 1.99-.695 2.334-1.657h.152a2.488 2.488 0 002.486-2.486v-5.8c0-.914.743-1.657 1.657-1.657s1.657.743 1.657 1.657V39.99a2.49 2.49 0 00-1.514 1.506h-2.629a.828.828 0 00-.828.829v3.314c0 .458.37.828.828.828h10.054c.458 0 .828-.37.828-.828v-3.314a.828.828 0 00-.828-.829z" fill="#fff"/><path d="M57.525 38.182v-4.971h-6.629v4.143a.829.829 0 01-.828.828h-2.486v3.315a3.318 3.318 0 013.314 3.314h1.963a4.913 4.913 0 01-.306-1.657 4.977 4.977 0 014.972-4.972z" fill="#fff"/><path d="M46.756 36.525h2.486v-3.314h-2.486a.829.829 0 00-.828.828v1.658c0 .458.37.828.828.828zm10.769-4.971v-1.657h-9.943v1.657h9.943zm-4.143-6.629h-1.657a4.15 4.15 0 00-4.059 3.314h9.775a4.149 4.149 0 00-4.059-3.314z" fill="#fff"/><circle cx="77.689" cy="26.399" r="2.8" fill="#98D8FC"/><circle cx="74.493" cy="21.599" r="1.2" fill="#98D8FC"/><path fill="#fff" d="M0 49h122v29H0z"/><path d="M12.494 60.62l.846 1.656c-.396.42-.966.762-1.71 1.026a6.791 6.791 0 01-2.322.396c-1.92 0-3.486-.594-4.698-1.782-1.2-1.188-1.8-2.76-1.8-4.716 0-1.872.57-3.426 1.71-4.662 1.128-1.224 2.706-1.836 4.734-1.836 1.608 0 2.886.426 3.834 1.278l-.99 1.638a5.041 5.041 0 00-2.844-.846c-1.2 0-2.184.402-2.952 1.206-.768.804-1.152 1.878-1.152 3.222 0 1.32.402 2.388 1.206 3.204.816.816 1.866 1.224 3.15 1.224 1.104 0 2.1-.336 2.988-1.008zm10.93 2.88h-7.883V50.9h2.214v10.53h5.67v2.07zm9.43 0h-7.47V50.9h7.29v2.07H27.6v3.132h4.536v2.07H27.6v3.258h5.256v2.07zm3.496 0h-2.232l5.328-12.636h1.944L46.718 63.5H44.36l-1.314-3.222h-5.382L36.35 63.5zm5.85-5.292l-1.836-4.482-1.854 4.482h3.69zM59.37 50.9v12.6h-1.765l-6.93-8.73v8.73h-2.07V50.9h1.764l6.93 8.766V50.9h2.07z" fill="#62C6FF"/><path d="M71.61 60.62l.845 1.656c-.396.42-.966.762-1.71 1.026a6.791 6.791 0 01-2.322.396c-1.92 0-3.486-.594-4.698-1.782-1.2-1.188-1.8-2.76-1.8-4.716 0-1.872.57-3.426 1.71-4.662 1.128-1.224 2.706-1.836 4.734-1.836 1.608 0 2.886.426 3.834 1.278l-.99 1.638a5.041 5.041 0 00-2.844-.846c-1.2 0-2.184.402-2.952 1.206-.768.804-1.152 1.878-1.152 3.222 0 1.32.402 2.388 1.206 3.204.816.816 1.866 1.224 3.15 1.224 1.104 0 2.1-.336 2.988-1.008zm13.216 2.88H82.63v-5.382h-5.76V63.5h-2.214V50.9h2.214v5.148h5.76V50.9h2.196v12.6zm4.1 0h-2.232l5.328-12.636h1.944L99.294 63.5h-2.358l-1.314-3.222H90.24L88.926 63.5zm5.85-5.292l-1.836-4.482-1.854 4.482h3.69zm8.89 5.292h-2.214V50.9h2.214v12.6zm5.97-4.716V63.5h-2.214V50.9c.624 0 1.302-.006 2.034-.018.732-.012 1.332-.018 1.8-.018 3.048 0 4.572 1.296 4.572 3.888 0 .96-.246 1.752-.738 2.376-.492.6-1.056 1.008-1.692 1.224l3.942 5.148h-2.682l-3.474-4.716h-1.548zm1.512-5.85c-.06 0-.156.006-.288.018-.132 0-.318.006-.558.018h-.666v3.744h1.44c.708 0 1.284-.174 1.728-.522.456-.348.684-.822.684-1.422 0-1.224-.78-1.836-2.34-1.836z" fill="#757575"/><path d="M7.969 69.559l1.87-3.217h1.786l-2.69 4.415 2.751 4.489H9.883L7.969 71.98l-1.92 3.266H4.25l2.758-4.489-2.697-4.415h1.785L7.97 69.56zm8.848-.93h1.48v6.617h-1.48V70.83l-2.593 4.415h-1.48v-6.617h1.48v4.415l2.593-4.415zm6.99 4.788l1.956-4.788h1.859v6.617h-1.486v-4.379l-1.822 4.379h-1.01l-1.828-4.403v4.403h-1.485v-6.617h1.87l1.945 4.788zm10.792 1.829h-1.486v-2.208c-.383.09-.787.135-1.21.135-.906 0-1.597-.216-2.074-.648-.477-.437-.715-1.06-.715-1.872v-2.03H30.6v2.03c0 .481.106.822.318 1.021.216.2.544.3.984.3.4 0 .803-.047 1.211-.14v-3.205H34.6v6.617zm5.711-6.617h1.48v6.617h-1.48V70.83l-2.592 4.415h-1.48v-6.617h1.48v4.415l2.592-4.415zm5.779 5.553c.37 0 .679-.108.923-.325.245-.216.375-.483.392-.8h1.4a2.199 2.199 0 01-.385 1.155c-.24.355-.567.636-.979.844a2.914 2.914 0 01-1.333.312c-.925 0-1.659-.3-2.201-.899-.542-.6-.813-1.427-.813-2.483v-.153c0-1.006.269-1.812.807-2.415.538-.607 1.272-.911 2.201-.911.787 0 1.427.23 1.92.691.498.457.758 1.058.783 1.804h-1.4c-.017-.38-.147-.691-.392-.936-.24-.244-.548-.367-.923-.367-.481 0-.852.176-1.113.526-.26.347-.393.875-.398 1.584v.239c0 .717.129 1.253.386 1.608.26.35.636.526 1.125.526zm9.044-4.373h-2.147v5.437h-1.485V69.81h-2.122v-1.18h5.754v1.18zm3.345 2.82h-.752v2.617H56.24v-6.617h1.486v2.642h.654l1.828-2.642h1.835l-2.391 3.168 2.593 3.449h-1.933l-1.834-2.618zm8.536 2.617c-.065-.127-.122-.333-.171-.618a2.313 2.313 0 01-1.737.74c-.664 0-1.206-.19-1.626-.569a1.82 1.82 0 01-.63-1.406c0-.706.26-1.246.783-1.62.526-.38 1.276-.57 2.25-.57h.911v-.434c0-.342-.096-.615-.287-.819-.192-.208-.484-.312-.875-.312-.338 0-.615.086-.832.257a.777.777 0 00-.324.642H62.99c0-.363.12-.701.361-1.015.24-.318.567-.567.979-.746a3.47 3.47 0 011.388-.269c.774 0 1.392.196 1.853.587.46.387.697.934.709 1.639v2.984c0 .595.084 1.07.25 1.425v.104h-1.516zm-1.633-1.07c.294 0 .57-.072.826-.215.26-.142.457-.334.587-.574v-1.248h-.801c-.55 0-.964.096-1.241.288-.278.191-.416.462-.416.813 0 .285.094.514.281.685.192.167.447.25.764.25zm11.503-.759l1.956-4.788h1.86v6.617h-1.487v-4.379l-1.822 4.379h-1.009l-1.828-4.403v4.403h-1.486v-6.617h1.871l1.945 4.788zm8.401 1.95c-.941 0-1.706-.295-2.293-.886-.583-.595-.874-1.386-.874-2.372v-.184c0-.66.126-1.25.38-1.767a2.925 2.925 0 011.075-1.217c.46-.29.975-.434 1.541-.434.901 0 1.596.287 2.085.862.494.575.74 1.388.74 2.44v.6h-4.323c.045.546.226.978.544 1.296.322.318.726.477 1.211.477.68 0 1.235-.276 1.663-.826l.801.765c-.265.395-.62.703-1.064.923-.44.216-.935.324-1.486.324zm-.177-5.668c-.407 0-.738.143-.99.428-.25.286-.408.683-.477 1.193h2.83v-.11c-.032-.498-.164-.873-.397-1.125-.232-.257-.554-.386-.966-.386zm7.106-.703c.831 0 1.498.28 2 .838.5.554.751 1.308.751 2.262v.074c0 .954-.273 1.726-.819 2.317-.542.592-1.28.887-2.214.887-.909 0-1.642-.302-2.201-.905-.558-.603-.838-1.427-.838-2.47v-.428c0-1.427.253-2.556.758-3.388.506-.832 1.26-1.352 2.263-1.56.563-.114.925-.234 1.088-.36a.633.633 0 00.251-.526h1.199c0 .412-.067.746-.202 1.003-.135.257-.34.467-.618.63-.277.159-.754.31-1.43.452-.62.13-1.093.363-1.42.697-.321.334-.537.797-.647 1.388.59-.607 1.284-.91 2.079-.91zm-.294 1.193c-.48 0-.858.163-1.131.489-.273.322-.41.82-.41 1.492 0 .636.135 1.131.404 1.486.269.354.652.532 1.15.532.493 0 .874-.178 1.143-.532.273-.359.41-.897.41-1.615 0-.57-.137-1.02-.41-1.351-.27-.334-.654-.501-1.156-.501zm7.124 5.179c-.942 0-1.706-.296-2.293-.887-.583-.595-.875-1.386-.875-2.372v-.184c0-.66.127-1.25.38-1.767a2.926 2.926 0 011.076-1.217c.46-.29.974-.434 1.54-.434.902 0 1.597.287 2.086.862.493.575.74 1.388.74 2.44v.6h-4.323c.044.546.226.978.544 1.296.322.318.725.477 1.21.477.681 0 1.236-.276 1.664-.826l.801.765c-.265.395-.62.703-1.064.923a3.33 3.33 0 01-1.486.324zm-.177-5.669c-.408 0-.738.143-.99.428-.25.286-.409.683-.478 1.193h2.831v-.11c-.032-.498-.165-.873-.397-1.125-.233-.257-.555-.386-.966-.386zm9.612-1.07v6.617h-1.486v-5.418h-1.871L105 72.133c-.078 1.109-.292 1.906-.642 2.391-.347.481-.879.722-1.596.722h-.459l-.006-1.236.306-.03c.326-.045.562-.243.709-.593.151-.355.247-1 .288-1.933l.122-2.825h4.757zm5.712 0h1.479v6.617h-1.479V70.83l-2.593 4.415h-1.48v-6.617h1.48v4.415l2.593-4.415z" fill="#62C6FF"/><path d="M0 48.5h122M0 77.5h122" stroke="#62C6FF"/></svg>