<svg width="103" height="82" fill="none" xmlns="http://www.w3.org/2000/svg"><path d="M82.62 4.737c-.397-.303-.911-.366-1.394-.24l-12.04 3.19h-5.882S47.9.595 47.69.52a1.628 1.628 0 00-.549-.116c-.675 0-1.283.414-1.514 1.047-.301.828.13 1.742.963 2.045l.002-.001c.13.046 14.748 6.74 14.748 6.74v19.57l-14.371 6.59a4.87 4.87 0 01-2.023.442H10.2a4.646 4.646 0 003.056-1.36 4.594 4.594 0 001.37-3.285c0-2.56-2.095-4.644-4.67-4.644h-4.35v-2.883h4.35c2.575 0 4.67-2.084 4.67-4.645 0-2.56-2.095-4.644-4.67-4.644h-4.35v-2.883h4.35a4.642 4.642 0 003.3-1.36 4.595 4.595 0 001.37-3.284c0-2.48-1.963-4.518-4.425-4.645H32.69c.889 0 1.61-.719 1.61-1.601C34.3.719 33.58 0 32.69 0H10.44a8.028 8.028 0 00-3.135.63c-.96.403-1.82.98-2.56 1.716a7.95 7.95 0 00-2.359 5.662V32.03a7.948 7.948 0 002.36 5.662c.74.735 1.6 1.313 2.56 1.717a8.03 8.03 0 003.134.63h1.254L1.257 61.655a4.77 4.77 0 00.266 4.653 4.79 4.79 0 004.068 2.238h.178v8.648C5.769 79.845 7.936 82 10.6 82s4.832-2.155 4.832-4.805v-8.648h.174a4.84 4.84 0 004.334-2.718l8.973-18.583h11.375c.619 0 1.182-.352 1.451-.906l3.054-6.3c1.159 0 2.476-.215 3.525-.698l14.985-6.83h5.882l12.04 3.11c.135.035.273.033.41.033a1.627 1.627 0 001.61-1.622V6.006c0-.497-.231-.965-.627-1.269zM5.607 8.007c0-.56.1-1.1.28-1.6h4.069c.799 0 1.45.646 1.45 1.44 0 .385-.151.747-.428 1.02a1.44 1.44 0 01-1.022.422h-4.35V8.008zm0 10.571h4.349c.799 0 1.45.647 1.45 1.442 0 .794-.651 1.44-1.45 1.44h-4.35v-2.882zm.28 15.055a4.733 4.733 0 01-.28-1.602V30.75h4.349c.799 0 1.45.647 1.45 1.441 0 .385-.151.746-.428 1.02a1.439 1.439 0 01-1.022.422h-4.07zm6.324 43.562c0 .883-.723 1.602-1.611 1.602s-1.61-.719-1.61-1.602v-8.648h3.22v8.648zm4.825-12.753a1.599 1.599 0 01-1.43.902H5.59c-.787 0-1.2-.518-1.34-.741a1.587 1.587 0 01-.09-1.561l11.107-23.003H28.82L17.037 64.442zm22.24-20.399H30.46l1.933-4.004h8.825l-1.94 4.004zm28.506-14.734h-3.221V10.89h3.221v18.418zm12.242 2.647l-9.02-2.36V10.443l9.02-2.36v23.872z" fill="#FFB617"/><path d="M39.939 3.203c.89 0 1.61-.717 1.61-1.601A1.604 1.604 0 0039.94 0c-.89 0-1.61.717-1.61 1.602 0 .884.72 1.601 1.61 1.601zM21.52 33.593a1.61 1.61 0 001.928-1.206c.881-3.855 1.328-8.016 1.328-12.367 0-4.352-.447-8.512-1.329-12.367a1.61 1.61 0 00-1.927-1.207 1.601 1.601 0 00-1.214 1.917c.817 3.571 1.249 7.602 1.249 11.657 0 4.054-.432 8.085-1.249 11.656a1.601 1.601 0 001.213 1.917zm21.253-5.226c.89 0 1.61-.717 1.61-1.602 0-.884-.72-1.601-1.61-1.601-.89 0-1.61.717-1.61 1.601 0 .885.72 1.602 1.61 1.602zM35.98 31.23c.89 0 1.61-.717 1.61-1.601 0-.885-.72-1.602-1.61-1.602-.89 0-1.61.717-1.61 1.602 0 .884.72 1.601 1.61 1.601zm-.09-19.218c.89 0 1.61-.717 1.61-1.602 0-.884-.72-1.601-1.61-1.601-.89 0-1.61.717-1.61 1.601 0 .885.72 1.602 1.61 1.602zm9.664 9.609c.89 0 1.61-.717 1.61-1.601 0-.885-.72-1.602-1.61-1.602-.89 0-1.61.717-1.61 1.602 0 .884.72 1.601 1.61 1.601zM31.059 20.02c0 2.649 2.167 4.804 4.832 4.804 2.664 0 4.832-2.155 4.832-4.804 0-.751-.174-1.463-.485-2.096l3.564-3.585c.625-.63.62-1.644-.014-2.265a1.617 1.617 0 00-2.277.013l-3.564 3.585a4.826 4.826 0 00-2.056-.457c-2.665 0-4.832 2.155-4.832 4.805zm6.443 0c0 .884-.721 1.601-1.611 1.601s-1.61-.717-1.61-1.601c0-.885.72-1.602 1.61-1.602.89 0 1.61.717 1.61 1.602z" fill="#FFB617"/><path d="M93 15h8m-8 13h8m-7-6h5" stroke="#FFB617" stroke-width="3" stroke-linecap="round" stroke-linejoin="round"/></svg>