<svg width="81" height="81" fill="none" xmlns="http://www.w3.org/2000/svg"><path d="M53.043 52.4a.895.895 0 001.152-1.372l-9.73-8.173c.237-.467.386-.987.42-1.538l5.683-5.76c1.035-1.007 1.023-2.806-.026-3.799-1.005-1.038-2.806-1.021-3.799.027l-5.285 5.358a3.948 3.948 0 00-1.312.045l-9.569-8.406c-1.059-.983-2.854-.88-3.792.218a2.69 2.69 0 00.218 3.792l4.06 3.497a.895.895 0 101.191-1.336l-4.06-3.497a.896.896 0 01-.072-1.264.9.9 0 011.264-.073l9.016 7.914a3.976 3.976 0 00-1.08 1.435l-2.394-2.133a.895.895 0 10-1.192 1.337l3.286 2.928a3.96 3.96 0 003.918 3.419 3.94 3.94 0 002.373-.793l9.73 8.173zm-5.025-19.358a.9.9 0 011.266-.009.9.9 0 01.009 1.267l-4.855 4.922a3.983 3.983 0 00-1.176-1.358l4.756-4.822zM40.94 43.228a2.167 2.167 0 01-2.165-2.165c0-1.193.971-2.164 2.165-2.164 1.193 0 2.164.97 2.164 2.164a2.167 2.167 0 01-2.164 2.165z" fill="#FFB617"/><path d="M40 17a1 1 0 112 0v2a1 1 0 11-2 0v-2zm16.535 6.121a1 1 0 011.414 1.415l-1.414 1.414a1 1 0 11-1.414-1.415l1.414-1.414zm8 16.415a1 1 0 010 2h-2a1 1 0 110-2h2zm-6.585 17a1 1 0 11-1.413 1.414l-1.414-1.414a1 1 0 011.414-1.415l1.414 1.415zM42 65a1 1 0 11-2 0v-2a1 1 0 112 0v2zm-18-6.586A1 1 0 0122.586 57L24 55.586A1 1 0 0125.414 57L24 58.414zM16 42a1 1 0 110-2h2a1 1 0 110 2h-2zm5.142-17.19a.978.978 0 111.303-1.461l.762.68.763.679a.978.978 0 11-1.303 1.46l-1.525-1.358z" stroke="#FFB617" stroke-width="2" stroke-linecap="round" stroke-linejoin="round"/><path d="M61.943 8.52A38.32 38.32 0 0040.5 2C19.237 2 2 19.237 2 40.5S19.237 79 40.5 79 79 61.763 79 40.5a38.325 38.325 0 00-7.196-22.418" stroke="#FFB617" stroke-width="3" stroke-linecap="round" stroke-linejoin="round"/><circle cx="40.5" cy="40.5" r="31.5" stroke="#FFB617" stroke-width="3"/></svg>