<svg width="88" height="88" fill="none" xmlns="http://www.w3.org/2000/svg"><path d="M80.886 78.037H78.05v2.838h2.837v-2.838zm-28.378 1.419H49.67v2.837h2.838v-2.837z" fill="#FFB617"/><path d="M87.88 78.097a8.514 8.514 0 00-1.318-3.338v-25.1a15.622 15.622 0 00-9.932-14.523v-5.34a1.42 1.42 0 00-1.42-1.419h-7.925l4.257-4.256h9.344c.377 0 .737-.15 1.003-.416l5.676-5.676c.266-.266.416-.626.416-1.003V9.932c0-.376-.15-.737-.416-1.003l-5.676-5.676a1.419 1.419 0 00-1.003-.415h-5.675v-1.42A1.42 1.42 0 0073.792 0H53.928c-.376 0-.737.15-1.003.416l-11.35 11.35-28.056 28.056-8.066 1.345v.024c-.29.039-.561.17-.773.371L.423 45.82a1.419 1.419 0 000 2.006l12.77 12.77a1.419 1.419 0 002.006 0l4.257-4.257c.203-.212.333-.483.371-.774h.025l1.345-8.065 28.059-28.05L60.19 8.512h13.601c.784 0 1.419-.635 1.419-1.419V5.675h5.088l4.844 4.844v5.92l-4.844 4.844h-9.345c-.376 0-.737.15-1.003.415l-6.678 6.679h-7.926c-.784 0-1.419.635-1.419 1.419v5.34a15.622 15.622 0 00-9.932 14.524v31.215a7.094 7.094 0 0014.189 0h12.897a8.513 8.513 0 0016.798-2.778zM14.2 57.586L3.437 46.822l2.25-2.25 10.764 10.763-2.25 2.25zm4.673-11.767c-.21.21-.348.479-.396.77l-.966 5.794-8.871-8.871 5.794-.966a1.42 1.42 0 00.77-.396l27.373-27.374 3.67 3.67-27.374 27.373zm29.38-29.38l-3.67-3.67 9.345-9.344 3.67 3.67-9.345 9.344zm24.12-10.764H60.191l-2.838-2.837h15.02v2.837zm-15.607 25.54h17.026v3.108a15.599 15.599 0 00-2.838-.27h-11.35c-.953.003-1.902.094-2.838.27v-3.108zm2.837 5.675h11.351a12.788 12.788 0 0112.692 11.35H46.912a12.788 12.788 0 0112.691-11.35zM46.834 51.08h36.891v2.837h-36.89V51.08zm36.891 5.675v5.675h-8.513v-5.675h8.513zm-36.89 0h25.54v2.838h-25.54v-2.838zm0 5.675h25.54v1.42c0 .783.635 1.418 1.418 1.418h9.932v6.828a8.464 8.464 0 00-2.838-1.025v-1.546a1.42 1.42 0 00-1.419-1.42H51.09a1.42 1.42 0 00-1.418 1.42v4.398a7.027 7.027 0 00-2.838 1.313V62.429zm4.256 22.702a4.257 4.257 0 110-8.513 4.257 4.257 0 010 8.513zm19.992-7.094h-13.5a7.114 7.114 0 00-5.074-4.115v-2.98h25.54v.128a8.524 8.524 0 00-6.967 6.967zm8.385 7.094a5.675 5.675 0 110-11.35 5.675 5.675 0 010 11.35zM8.523 61.01a4.257 4.257 0 10-8.513 0 4.257 4.257 0 008.513 0zm-5.676 0a1.419 1.419 0 112.838 0 1.419 1.419 0 01-2.838 0zm2.838 15.608a5.675 5.675 0 100 11.35 5.675 5.675 0 000-11.35zm0 8.513a2.838 2.838 0 110-5.675 2.838 2.838 0 010 5.675zm7.095-19.864a4.256 4.256 0 100 8.513 4.256 4.256 0 000-8.513zm0 5.675a1.419 1.419 0 110-2.837 1.419 1.419 0 010 2.837z" fill="#FFB617"/><path d="M25.548 69.524a4.257 4.257 0 100 8.513 4.257 4.257 0 000-8.513zm0 5.675a1.419 1.419 0 110-2.838 1.419 1.419 0 010 2.838zm1.418-21.283a5.675 5.675 0 100 11.351 5.675 5.675 0 000-11.35zm0 8.514a2.838 2.838 0 110-5.676 2.838 2.838 0 010 5.676zm-9.931 14.188h-2.838v2.838h2.838v-2.838zm5.678 4.256h-2.838v2.838h2.838v-2.838z" fill="#FFB617"/></svg>