<svg width="90" height="90" fill="none" xmlns="http://www.w3.org/2000/svg"><path fill-rule="evenodd" clip-rule="evenodd" d="M45.21 0c2.118 0 3.579 1.666 5.026 3.317.858.978 1.707 1.947 2.228 2.04.532.098 1.675-.536 2.812-1.166 1.88-1.043 3.75-2.08 5.665-1.368 1.936.72 2.661 2.745 3.383 4.764.428 1.195.854 2.385 1.261 2.623.409.239 1.663.02 2.915-.199 2.102-.367 4.202-.734 5.761.578 1.55 1.306 1.541 3.438 1.532 5.57-.006 1.26-.012 2.518.293 2.878.304.361 1.547.57 2.79.779 2.11.355 4.224.71 5.258 2.471 1.031 1.757.32 3.762-.394 5.773-.43 1.206-.86 2.417-.686 2.882.174.463 1.274 1.102 2.38 1.744 1.873 1.087 3.758 2.181 4.132 4.235.367 2.019-.97 3.697-2.318 5.392-.827 1.04-1.661 2.088-1.661 2.687 0 .6.834 1.648 1.661 2.688 1.349 1.694 2.685 3.372 2.318 5.391-.374 2.054-2.259 3.148-4.133 4.236-1.105.641-2.205 1.28-2.379 1.744-.173.465.257 1.675.686 2.882.714 2.011 1.425 4.015.394 5.772-1.034 1.762-3.148 2.117-5.258 2.471-1.243.21-2.486.418-2.79.779-.305.36-.299 1.62-.293 2.878.01 2.132.019 4.264-1.532 5.57-1.559 1.312-3.659.946-5.761.578-1.252-.218-2.507-.437-2.915-.199-.407.238-.833 1.43-1.26 2.624-.723 2.019-1.448 4.044-3.384 4.764-1.915.711-3.785-.326-5.665-1.368-1.137-.63-2.28-1.264-2.813-1.167-.52.094-1.37 1.063-2.227 2.04C48.79 88.333 47.328 90 45.21 90c-2.117 0-3.578-1.666-5.026-3.317-.857-.978-1.707-1.947-2.227-2.04-.533-.098-1.676.536-2.813 1.166-1.88 1.043-3.75 2.08-5.664 1.368-1.937-.72-2.661-2.745-3.384-4.764-.428-1.194-.854-2.385-1.261-2.623-.408-.239-1.662-.02-2.915.2-2.102.366-4.202.733-5.761-.58-1.55-1.305-1.541-3.438-1.531-5.57.006-1.258.011-2.517-.293-2.877-.305-.361-1.547-.57-2.791-.779-2.11-.354-4.224-.71-5.258-2.471-1.03-1.757-.319-3.762.395-5.773.429-1.206.858-2.417.685-2.882-.173-.463-1.273-1.102-2.38-1.744-1.873-1.087-3.758-2.181-4.131-4.235-.368-2.019.968-3.698 2.317-5.392.827-1.04 1.662-2.088 1.662-2.688 0-.598-.834-1.647-1.662-2.687C1.823 40.618.487 38.94.855 36.92c.373-2.053 2.258-3.147 4.132-4.235 1.106-.642 2.206-1.28 2.379-1.744.173-.465-.256-1.675-.685-2.882-.714-2.011-1.426-4.015-.395-5.772 1.034-1.762 3.148-2.117 5.258-2.471 1.244-.21 2.486-.418 2.79-.779.305-.36.3-1.62.294-2.878-.01-2.132-.02-4.265 1.531-5.57 1.559-1.312 3.659-.946 5.761-.578 1.253.218 2.507.437 2.915.199.407-.238.833-1.43 1.26-2.624.723-2.018 1.449-4.044 3.385-4.764 1.915-.711 3.784.326 5.664 1.368 1.137.63 2.28 1.264 2.813 1.167.52-.094 1.37-1.063 2.227-2.04C41.632 1.667 43.094 0 45.21 0zm21.826 22.707a1.76 1.76 0 00-1.344 2.892l.004.007A28.052 28.052 0 0173.446 45c0 7.782-3.16 14.827-8.27 19.927a28.174 28.174 0 01-19.966 8.254 28.23 28.23 0 01-9.677-1.698l-.004-.002a1.76 1.76 0 00-2.273 1.683 1.76 1.76 0 001.26 1.685 31.757 31.757 0 0010.694 1.843 31.687 31.687 0 0022.453-9.283C73.41 61.674 76.964 53.751 76.964 45c0-8.374-3.255-15.99-8.57-21.655a1.76 1.76 0 00-1.358-.638zm-5.316-4.462a1.76 1.76 0 00-1.76 1.758 1.76 1.76 0 003.522 0 1.76 1.76 0 00-1.762-1.758zm-5.716-3.059a31.753 31.753 0 00-10.794-1.878 31.685 31.685 0 00-22.453 9.283C17.01 28.326 13.456 36.249 13.456 45c0 8.356 3.241 15.957 8.536 21.619a1.76 1.76 0 102.7-2.258v-.001l-.007-.008a1.584 1.584 0 00-.11-.115A28.054 28.054 0 0116.974 45c0-7.782 3.16-14.828 8.27-19.927a28.174 28.174 0 0119.966-8.254c3.37 0 6.601.589 9.597 1.67.212.09.446.139.69.139a1.759 1.759 0 00.506-3.441zM28.7 68.24a1.76 1.76 0 00-1.762 1.757c0 .971.79 1.758 1.762 1.758a1.76 1.76 0 001.76-1.758 1.76 1.76 0 00-1.76-1.757zM47.599 5.622c-.921-1.051-1.85-2.111-2.388-2.111-.538 0-1.468 1.06-2.389 2.11C41.561 7.06 40.31 8.487 38.575 8.8c-1.761.32-3.452-.619-5.134-1.552-1.173-.65-2.339-1.296-2.738-1.148-.393.146-.845 1.408-1.295 2.666-.64 1.788-1.279 3.572-2.8 4.46-1.533.897-3.414.569-5.292.24-1.297-.225-2.593-.452-2.889-.202-.306.258-.301 1.57-.295 2.882.01 1.905.017 3.81-1.118 5.154-1.131 1.34-3.011 1.656-4.893 1.972-1.302.219-2.608.438-2.81.785-.203.344.239 1.588.682 2.837.639 1.798 1.28 3.602.657 5.268-.613 1.644-2.254 2.597-3.904 3.555-1.177.682-2.36 1.37-2.442 1.821-.084.458.763 1.521 1.616 2.594C7.131 41.653 8.352 43.187 8.352 45c0 1.813-1.22 3.347-2.432 4.868-.853 1.073-1.7 2.136-1.616 2.594.081.452 1.265 1.139 2.442 1.822 1.65.957 3.29 1.91 3.904 3.554.622 1.667-.018 3.47-.657 5.269-.443 1.248-.885 2.492-.683 2.837.203.346 1.508.566 2.811.784 1.883.317 3.761.632 4.893 1.972 1.135 1.343 1.127 3.249 1.118 5.155-.006 1.311-.012 2.623.295 2.882.297.249 1.592.023 2.89-.203 1.877-.328 3.758-.657 5.29.24 1.522.888 2.16 2.672 2.8 4.46.45 1.258.903 2.52 1.296 2.666.4.148 1.565-.498 2.738-1.148 1.682-.933 3.373-1.87 5.134-1.551 1.736.313 2.986 1.74 4.247 3.178.921 1.05 1.85 2.11 2.389 2.11.537 0 1.467-1.06 2.388-2.11 1.26-1.438 2.512-2.865 4.246-3.178 1.761-.32 3.453.618 5.135 1.55 1.173.651 2.339 1.297 2.738 1.149.393-.146.845-1.409 1.295-2.666.64-1.788 1.279-3.571 2.8-4.46 1.532-.897 3.413-.569 5.29-.24 1.299.226 2.594.453 2.891.203.306-.26.3-1.57.295-2.882-.01-1.906-.018-3.812 1.118-5.155 1.131-1.34 3.01-1.655 4.892-1.972 1.303-.218 2.609-.438 2.812-.784.202-.345-.24-1.589-.684-2.837-.638-1.798-1.278-3.602-.657-5.269.614-1.644 2.255-2.597 3.904-3.554 1.177-.683 2.36-1.37 2.443-1.822.083-.458-.763-1.521-1.617-2.594-1.21-1.521-2.432-3.055-2.432-4.868 0-1.813 1.222-3.347 2.432-4.868.854-1.073 1.7-2.136 1.617-2.594-.082-.452-1.266-1.139-2.443-1.821-1.649-.958-3.29-1.91-3.904-3.555-.621-1.666.02-3.47.657-5.268.444-1.248.886-2.493.684-2.837-.203-.347-1.509-.566-2.812-.785-1.882-.316-3.76-.632-4.892-1.972-1.136-1.343-1.127-3.249-1.118-5.154.006-1.312.011-2.624-.295-2.882-.297-.25-1.593-.023-2.89.203-1.878.328-3.759.656-5.29-.24-1.523-.89-2.161-2.673-2.8-4.461-.45-1.258-.903-2.52-1.296-2.666-.4-.148-1.566.498-2.738 1.148-1.683.933-3.374 1.871-5.135 1.552-1.735-.314-2.985-1.74-4.246-3.178z" fill="#FFB617"/><path d="M25.584 54v-2.28h4.152V40.2l-3.96.72v-2.064L30.72 37.2h1.56v14.52h4.464V54h-11.16zm20.007.288c-1.296 0-2.432-.352-3.408-1.056-.96-.704-1.704-1.704-2.232-3-.528-1.312-.792-2.856-.792-4.632 0-1.792.264-3.336.792-4.632.528-1.296 1.272-2.296 2.232-3 .976-.704 2.112-1.056 3.408-1.056 1.312 0 2.448.352 3.408 1.056.96.704 1.704 1.704 2.232 3 .528 1.296.792 2.84.792 4.632 0 1.776-.264 3.32-.792 4.632-.528 1.296-1.272 2.296-2.232 3-.96.704-2.096 1.056-3.408 1.056zM41.75 45.6c0 .896.08 1.712.24 2.448.16.736.384 1.376.672 1.92l4.2-10.392a2.903 2.903 0 00-1.272-.288c-1.12 0-2.04.568-2.76 1.704-.72 1.12-1.08 2.656-1.08 4.608zm3.84 6.336a2.91 2.91 0 001.992-.768c.576-.512 1.024-1.24 1.344-2.184.336-.96.504-2.088.504-3.384 0-.896-.08-1.712-.24-2.448-.16-.736-.384-1.368-.672-1.896l-4.2 10.392c.4.192.824.288 1.272.288z" fill="#FFB617"/><path d="M65.5 39L56 52.5" stroke="#FFB617" stroke-width="3" stroke-linecap="round" stroke-linejoin="round"/><circle cx="57" cy="41" r="2" stroke="#FFB617" stroke-width="2"/><circle cx="65" cy="51" r="2" stroke="#FFB617" stroke-width="2"/></svg>