<svg width="82" height="82" fill="none" xmlns="http://www.w3.org/2000/svg"><path d="M69.644 11.664a1.694 1.694 0 00-2.368 2.425C74.586 21.227 78.612 30.784 78.612 41c0 20.74-16.873 37.612-37.612 37.612S3.388 61.739 3.388 41C3.388 20.26 20.261 3.388 41 3.388c5.46 0 10.723 1.143 15.646 3.398a1.694 1.694 0 101.41-3.08C52.69 1.245 46.95 0 41 0 30.048 0 19.752 4.265 12.008 12.008 4.264 19.752 0 30.048 0 41c0 10.952 4.264 21.248 12.008 28.992C19.752 77.735 30.048 82 41 82c10.952 0 21.248-4.265 28.992-12.008C77.735 62.248 82 51.952 82 41c0-11.137-4.388-21.555-12.356-29.336z" fill="#FFB617"/><path d="M64.957 7.723c-.348-.251-.706-.5-1.062-.74a1.695 1.695 0 00-1.894 2.81c.327.22.654.447.973.678a1.692 1.692 0 002.365-.383 1.694 1.694 0 00-.382-2.365zM18.524 28.447c-4.315 0-7.825 3.51-7.825 7.825a1.694 1.694 0 003.389 0 4.441 4.441 0 014.436-4.436 4.44 4.44 0 014.434 4.436 1.694 1.694 0 003.388 0c0-4.315-3.509-7.825-7.822-7.825zm44.955 0c-4.314 0-7.823 3.51-7.823 7.825a1.695 1.695 0 003.389 0 4.44 4.44 0 014.433-4.436 4.441 4.441 0 014.437 4.436 1.694 1.694 0 003.388 0c0-4.315-3.51-7.825-7.824-7.825zm-8.275 15.99H26.96c-.936 0-1.694.759-1.694 1.694v6.694a15.71 15.71 0 004.653 11.205 15.714 15.714 0 0011.162 4.61 15.71 15.71 0 0011.103-4.555l.003-.002.055-.053a15.704 15.704 0 004.656-11.205V46.13c0-.935-.758-1.694-1.694-1.694zM41.08 65.252a12.34 12.34 0 01-7.424-2.46c1.535-1.252 4.287-3.051 7.426-3.051 3.137 0 5.888 1.8 7.422 3.05a12.335 12.335 0 01-7.424 2.46zm9.851-4.853c-1.866-1.583-5.474-4.047-9.851-4.047-4.376 0-7.984 2.464-9.85 4.047a12.289 12.289 0 01-2.46-5.88h24.622a12.287 12.287 0 01-2.46 5.88zm2.578-9.269H28.654v-3.305H53.51v3.305z" fill="#FFB617"/></svg>