<svg width="25" height="25" viewBox="0 0 25 25" fill="none" xmlns="http://www.w3.org/2000/svg">
<path d="M21.4844 7.8125H22.3375C22.4992 8.26602 22.9289 8.59375 23.4375 8.59375C24.0836 8.59375 24.6094 8.06797 24.6094 7.42188C24.6094 6.77578 24.0836 6.25 23.4375 6.25C22.9289 6.25 22.4992 6.57773 22.3375 7.03125H21.4844V3.90625H22.3375C22.4992 4.35977 22.9289 4.6875 23.4375 4.6875C24.0836 4.6875 24.6094 4.16172 24.6094 3.51562C24.6094 2.86953 24.0836 2.34375 23.4375 2.34375C22.9289 2.34375 22.4992 2.67148 22.3375 3.125H21.4844V2.34375C21.4844 2.12812 21.3094 1.95312 21.0938 1.95312H6.82734C6.1957 1.01172 5.12227 0.390625 3.90625 0.390625C1.96797 0.390625 0.390625 1.96797 0.390625 3.90625V21.0938C0.390625 23.032 1.96797 24.6094 3.90625 24.6094H21.0938C21.3094 24.6094 21.4844 24.4344 21.4844 24.2188V23.4375H22.3375C22.4992 23.891 22.9289 24.2188 23.4375 24.2188C24.0836 24.2188 24.6094 23.693 24.6094 23.0469C24.6094 22.4008 24.0836 21.875 23.4375 21.875C22.9289 21.875 22.4992 22.2027 22.3375 22.6562H21.4844V19.5312H22.3375C22.4992 19.9848 22.9289 20.3125 23.4375 20.3125C24.0836 20.3125 24.6094 19.7867 24.6094 19.1406C24.6094 18.4945 24.0836 17.9688 23.4375 17.9688C22.9289 17.9688 22.4992 18.2965 22.3375 18.75H21.4844V15.625H22.3375C22.4992 16.0785 22.9289 16.4062 23.4375 16.4062C24.0836 16.4062 24.6094 15.8805 24.6094 15.2344C24.6094 14.5883 24.0836 14.0625 23.4375 14.0625C22.9289 14.0625 22.4992 14.3902 22.3375 14.8438H21.4844V11.7188H22.3375C22.4992 12.1723 22.9289 12.5 23.4375 12.5C24.0836 12.5 24.6094 11.9742 24.6094 11.3281C24.6094 10.682 24.0836 10.1562 23.4375 10.1562C22.9289 10.1562 22.4992 10.484 22.3375 10.9375H21.4844V7.8125ZM23.4375 7.03125C23.6527 7.03125 23.8281 7.20664 23.8281 7.42188C23.8281 7.63711 23.6527 7.8125 23.4375 7.8125C23.2223 7.8125 23.0469 7.63711 23.0469 7.42188C23.0469 7.20664 23.2223 7.03125 23.4375 7.03125ZM23.4375 3.125C23.6527 3.125 23.8281 3.30039 23.8281 3.51562C23.8281 3.73086 23.6527 3.90625 23.4375 3.90625C23.2223 3.90625 23.0469 3.73086 23.0469 3.51562C23.0469 3.30039 23.2223 3.125 23.4375 3.125ZM17.3492 21.4844L16.4535 20.5887C16.1711 20.3062 16.0156 19.9305 16.0156 19.5312C16.0156 19.132 16.1711 18.7563 16.4535 18.4738L16.9113 18.016C17.3414 17.5863 17.5781 17.0145 17.5781 16.4062C17.5781 15.798 17.3414 15.2262 16.9113 14.7965L16.4535 14.3387C16.1711 14.0563 16.0156 13.6805 16.0156 13.2812C16.0156 12.882 16.1711 12.5062 16.4535 12.2238L16.9113 11.766C17.3414 11.3363 17.5781 10.7645 17.5781 10.1562C17.5781 9.54805 17.3414 8.97617 16.9113 8.54648L16.4535 8.08867C16.1711 7.80625 16.0156 7.43047 16.0156 7.03125C16.0156 6.63203 16.1711 6.25625 16.4535 5.97383L17.3492 5.07812H18.3594V21.4844H17.3492ZM15.9012 5.42148C15.4711 5.85117 15.2344 6.42305 15.2344 7.03125C15.2344 7.63945 15.4711 8.21133 15.9012 8.64102L16.359 9.09883C16.6414 9.38125 16.7969 9.75703 16.7969 10.1562C16.7969 10.5555 16.6414 10.9313 16.359 11.2137L15.9012 11.6715C15.4711 12.1012 15.2344 12.673 15.2344 13.2812C15.2344 13.8895 15.4711 14.4613 15.9012 14.891L16.359 15.3488C16.6414 15.6312 16.7969 16.007 16.7969 16.4062C16.7969 16.8055 16.6414 17.1812 16.359 17.4637L15.9012 17.9215C15.4711 18.3512 15.2344 18.923 15.2344 19.5312C15.2344 20.1395 15.4711 20.7113 15.9012 21.141L16.2445 21.4844H14.6148L13.7191 20.5887C13.4367 20.3062 13.2812 19.9305 13.2812 19.5312C13.2812 19.132 13.4367 18.7563 13.7191 18.4738L14.177 18.016C14.607 17.5863 14.8438 17.0145 14.8438 16.4062C14.8438 15.798 14.607 15.2262 14.177 14.7965L13.7191 14.3387C13.4367 14.0563 13.2812 13.6805 13.2812 13.2812C13.2812 12.882 13.4367 12.5062 13.7191 12.2238L14.177 11.766C14.607 11.3363 14.8438 10.7645 14.8438 10.1562C14.8438 9.54805 14.607 8.97617 14.177 8.54648L13.7191 8.08867C13.4367 7.80625 13.2812 7.43047 13.2812 7.03125C13.2812 6.63203 13.4367 6.25625 13.7191 5.97383L14.6148 5.07812H16.2445L15.9012 5.42148ZM13.1668 5.42148C12.7367 5.85117 12.5 6.42305 12.5 7.03125C12.5 7.63945 12.7367 8.21133 13.1668 8.64102L13.6246 9.09883C13.907 9.38125 14.0625 9.75703 14.0625 10.1562C14.0625 10.5555 13.907 10.9313 13.6246 11.2137L13.1668 11.6715C12.7367 12.1012 12.5 12.673 12.5 13.2812C12.5 13.8895 12.7367 14.4613 13.1668 14.891L13.6246 15.3488C13.907 15.6312 14.0625 16.007 14.0625 16.4062C14.0625 16.8055 13.907 17.1812 13.6246 17.4637L13.1668 17.9215C12.7367 18.3512 12.5 18.923 12.5 19.5312C12.5 20.1395 12.7367 20.7113 13.1668 21.141L13.5102 21.4844H11.8805L10.9848 20.5887C10.7023 20.3062 10.5469 19.9305 10.5469 19.5312C10.5469 19.132 10.7023 18.7563 10.9848 18.4738L11.4426 18.016C11.8727 17.5863 12.1094 17.0145 12.1094 16.4062C12.1094 15.798 11.8727 15.2262 11.4426 14.7965L10.9848 14.3387C10.7023 14.0563 10.5469 13.6805 10.5469 13.2812C10.5469 12.882 10.7023 12.5062 10.9848 12.2238L11.4426 11.766C11.8727 11.3363 12.1094 10.7645 12.1094 10.1562C12.1094 9.54805 11.8727 8.97617 11.4426 8.54648L10.9848 8.08867C10.7023 7.80625 10.5469 7.43047 10.5469 7.03125C10.5469 6.63203 10.7023 6.25625 10.9848 5.97383L11.8805 5.07812H13.5102L13.1668 5.42148ZM10.4324 5.42148C10.0023 5.85117 9.76562 6.42305 9.76562 7.03125C9.76562 7.63945 10.0023 8.21133 10.4324 8.64102L10.8902 9.09883C11.1727 9.38125 11.3281 9.75703 11.3281 10.1562C11.3281 10.5555 11.1727 10.9313 10.8902 11.2137L10.4324 11.6715C10.0023 12.1012 9.76562 12.673 9.76562 13.2812C9.76562 13.8895 10.0023 14.4613 10.4324 14.891L10.8902 15.3488C11.1727 15.6312 11.3281 16.007 11.3281 16.4062C11.3281 16.8055 11.1727 17.1812 10.8902 17.4637L10.4324 17.9215C10.0023 18.3512 9.76562 18.923 9.76562 19.5312C9.76562 20.1395 10.0023 20.7113 10.4324 21.141L10.7758 21.4844H9.14609L8.25039 20.5887C7.96797 20.3062 7.8125 19.9305 7.8125 19.5312C7.8125 19.132 7.96797 18.7563 8.25039 18.4738L8.7082 18.016C9.13828 17.5863 9.375 17.0145 9.375 16.4062C9.375 15.798 9.13828 15.2262 8.7082 14.7965L8.25039 14.3387C7.96797 14.0563 7.8125 13.6805 7.8125 13.2812C7.8125 12.882 7.96797 12.5062 8.25039 12.2238L8.7082 11.766C9.13828 11.3363 9.375 10.7645 9.375 10.1562C9.375 9.54805 9.13828 8.97617 8.7082 8.54648L8.25039 8.08867C7.96797 7.80625 7.8125 7.43047 7.8125 7.03125C7.8125 6.63203 7.96797 6.25625 8.25039 5.97383L9.14609 5.07812H10.7758L10.4324 5.42148ZM7.42188 8.30625C7.50234 8.425 7.59453 8.5375 7.69805 8.64102L8.15586 9.09883C8.43828 9.38125 8.59375 9.75703 8.59375 10.1562C8.59375 10.5555 8.43828 10.9313 8.15586 11.2137L7.69805 11.6715C7.59414 11.7754 7.50234 11.8875 7.42188 12.0063V8.30625ZM8.15586 15.3488C8.43828 15.6312 8.59375 16.007 8.59375 16.4062C8.59375 16.8055 8.43828 17.1812 8.15586 17.4637L7.69805 17.9215C7.59414 18.0254 7.50234 18.1375 7.42188 18.2563V14.5562C7.50234 14.675 7.59453 14.7875 7.69805 14.891L8.15586 15.3488ZM7.42188 21.0938V20.8062C7.50234 20.925 7.59453 21.0375 7.69805 21.141L8.04141 21.4844H7.39883C7.41328 21.3559 7.42188 21.2258 7.42188 21.0938ZM7.69805 5.42148C7.59414 5.52539 7.50234 5.6375 7.42188 5.75625V5.07812H8.04141L7.69805 5.42148ZM1.17188 3.90625C1.17188 2.39844 2.39844 1.17188 3.90625 1.17188C5.41406 1.17188 6.64062 2.39844 6.64062 3.90625V18.8891C5.9957 18.0906 5.01016 17.5781 3.90625 17.5781C2.80234 17.5781 1.8168 18.0906 1.17188 18.8891V3.90625ZM1.17188 21.0938C1.17188 19.5859 2.39844 18.3594 3.90625 18.3594C5.41406 18.3594 6.64062 19.5859 6.64062 21.0938C6.64062 22.6016 5.41406 23.8281 3.90625 23.8281C2.39844 23.8281 1.17188 22.6016 1.17188 21.0938ZM20.7031 23.8281H6.11094C6.61172 23.4234 6.99727 22.884 7.2168 22.2656H18.75C18.9656 22.2656 19.1406 22.0906 19.1406 21.875V4.6875C19.1406 4.47188 18.9656 4.29688 18.75 4.29688H7.42188V3.90625C7.42188 3.49492 7.34727 3.10156 7.2168 2.73438H20.7031V23.8281ZM23.4375 22.6562C23.6527 22.6562 23.8281 22.8316 23.8281 23.0469C23.8281 23.2621 23.6527 23.4375 23.4375 23.4375C23.2223 23.4375 23.0469 23.2621 23.0469 23.0469C23.0469 22.8316 23.2223 22.6562 23.4375 22.6562ZM23.4375 18.75C23.6527 18.75 23.8281 18.9254 23.8281 19.1406C23.8281 19.3559 23.6527 19.5312 23.4375 19.5312C23.2223 19.5312 23.0469 19.3559 23.0469 19.1406C23.0469 18.9254 23.2223 18.75 23.4375 18.75ZM23.4375 14.8438C23.6527 14.8438 23.8281 15.0191 23.8281 15.2344C23.8281 15.4496 23.6527 15.625 23.4375 15.625C23.2223 15.625 23.0469 15.4496 23.0469 15.2344C23.0469 15.0191 23.2223 14.8438 23.4375 14.8438ZM23.4375 10.9375C23.6527 10.9375 23.8281 11.1129 23.8281 11.3281C23.8281 11.5434 23.6527 11.7188 23.4375 11.7188C23.2223 11.7188 23.0469 11.5434 23.0469 11.3281C23.0469 11.1129 23.2223 10.9375 23.4375 10.9375Z" fill="black"/>
</svg>
