<svg width="22" height="26" viewBox="0 0 22 26" fill="none" xmlns="http://www.w3.org/2000/svg">
<path d="M0.273438 11.8174C0.273438 12.9784 1.01539 14.0093 2.14555 14.4574V15.5534C1.79435 15.7039 1.54761 16.0529 1.54761 16.4586V18.6383C1.54761 18.8658 1.62592 19.075 1.75607 19.2419C1.62592 19.4088 1.54761 19.618 1.54761 19.8455V21.5892C1.54761 22.1321 1.98925 22.5737 2.53209 22.5737H2.9073L2.97687 25.0701C2.97692 25.0723 2.97702 25.0745 2.97713 25.0767C3.00145 25.6137 3.41053 26 3.95028 26C4.42781 26 4.81024 25.6805 4.89484 25.203L5.48277 22.5737H10.1108C10.3212 22.5737 10.4917 22.4032 10.4917 22.1929C10.4917 21.9825 10.3212 21.812 10.1108 21.812C9.26777 21.812 3.38332 21.812 2.53214 21.812C2.41138 21.812 2.30937 21.71 2.30937 21.5892V19.8455C2.30937 19.7247 2.41138 19.6227 2.53214 19.6227H19.4667C19.5875 19.6227 19.6895 19.7247 19.6895 19.8455V21.5892C19.6895 21.71 19.5875 21.812 19.4667 21.812C18.6164 21.812 12.7309 21.812 11.8881 21.812C11.6777 21.812 11.5072 21.9825 11.5072 22.1929C11.5072 22.4032 11.6777 22.5737 11.8881 22.5737H16.5161L17.104 25.203C17.1887 25.6805 17.5709 26.0001 18.0486 26C18.5882 26 18.9974 25.6138 19.0217 25.0767C19.0218 25.0745 19.0219 25.0723 19.022 25.0701L19.0915 22.5737H19.4668C20.0096 22.5737 20.4512 22.1321 20.4512 21.5892V19.8455C20.4512 19.618 20.3729 19.4088 20.2428 19.2419C20.3729 19.075 20.4512 18.8658 20.4512 18.6383V18.4371C20.4512 18.2267 20.2808 18.0562 20.0704 18.0562C19.86 18.0562 19.6895 18.2267 19.6895 18.4371V18.6383C19.6895 18.759 19.5875 18.861 19.4668 18.861H2.53209C2.41133 18.861 2.30932 18.759 2.30932 18.6383V16.4586C2.30932 16.3386 2.41011 16.2373 2.52985 16.236C2.53381 16.236 2.53778 16.2359 2.54163 16.2358H19.4577C19.4618 16.2359 19.4653 16.236 19.4689 16.236C19.5887 16.2373 19.6895 16.3385 19.6895 16.4585V16.6597C19.6895 16.87 19.86 17.0406 20.0703 17.0406C20.2807 17.0406 20.4512 16.87 20.4512 16.6597V16.4585C20.4512 16.0528 20.2044 15.7039 19.8533 15.5533V14.4574C20.9834 14.0093 21.7254 12.9784 21.7254 11.8174C21.7254 10.5231 20.8004 9.42658 19.5334 9.06919L20.0361 5.95078C20.2464 4.64603 19.3847 3.42751 18.0743 3.17671C17.2896 3.0265 16.6303 2.65662 16.1148 2.07727C15.6093 1.50914 14.9378 1.0348 14.1191 0.667308C12.1364 -0.222461 9.86231 -0.222411 7.8797 0.667308C7.06097 1.03475 6.38945 1.50914 5.88393 2.07727C5.36841 2.65662 4.70914 3.0265 3.92448 3.17671C2.6141 3.42751 1.75241 4.64603 1.96269 5.95078L2.46531 9.06919C1.1985 9.42663 0.273438 10.5232 0.273438 11.8174ZM4.70218 22.5737L4.14939 25.046C4.14786 25.0529 4.14649 25.0597 4.14537 25.0666C4.11902 25.2251 3.99943 25.2419 3.93068 25.2377C3.86222 25.2336 3.7466 25.2031 3.73812 25.0449L3.66926 22.5737H4.70218ZM18.2606 25.0449C18.2522 25.2031 18.1365 25.2336 18.0681 25.2377C17.9989 25.2418 17.8797 25.2251 17.8534 25.0666C17.8523 25.0597 17.8509 25.0529 17.8494 25.046L17.2966 22.5737H18.3295L18.2606 25.0449ZM4.36545 15.4741H2.9073V14.3072C2.9073 13.9712 2.73841 13.6742 2.47958 13.504C2.47958 13.504 2.47958 13.504 2.47953 13.504C2.13483 13.2776 1.92902 12.8966 1.92902 12.4849C1.92902 11.8132 2.47552 11.2667 3.14724 11.2667C3.9098 11.2667 4.36545 11.9003 4.36545 12.5129V15.4741ZM15.5551 15.4741H6.44368V14.9111C6.44368 14.57 6.7211 14.2908 7.06401 14.2908H14.9348C15.2771 14.2908 15.5551 14.5694 15.5551 14.9111V15.4741ZM15.5551 11.8174V13.6763C15.3618 13.5789 15.1471 13.5292 14.9348 13.5292H7.06401C6.84617 13.5292 6.63076 13.5821 6.44368 13.6763V11.8174C6.44368 10.7894 5.84082 9.80743 4.83517 9.29633L4.22591 5.5162C4.22139 5.48812 4.24165 5.46192 4.27202 5.45659C5.58062 5.22726 6.73308 4.58825 7.60482 3.6086C7.89285 3.28492 8.30264 3.00243 8.82279 2.769C10.2064 2.14806 11.7934 2.14821 13.1768 2.76935C13.6966 3.00279 14.1062 3.28518 14.394 3.6086C15.2657 4.5883 16.4181 5.22732 17.7267 5.45659C17.7571 5.46192 17.7774 5.48812 17.7728 5.5162L17.1636 9.29638C16.1945 9.7888 15.5551 10.7508 15.5551 11.8174ZM19.5192 13.504C19.2648 13.6711 19.0915 13.9661 19.0915 14.3072V15.4741H17.6333V12.5128C17.6333 11.7328 18.2527 11.2666 18.8515 11.2666C19.5233 11.2666 20.0697 11.8131 20.0697 12.4848C20.0698 12.8966 19.864 13.2775 19.5192 13.504ZM20.9637 11.8174C20.9637 12.0622 20.9174 12.2994 20.8312 12.5209C20.8539 11.4213 19.9608 10.5049 18.8516 10.5049C17.7414 10.5049 16.8717 11.3869 16.8717 12.5129V15.4741H16.3168V14.9112V11.8174C16.3168 11.0301 16.8147 10.2689 17.6477 9.91041C19.1742 9.25276 20.9637 10.2674 20.9637 11.8174ZM4.06773 3.9248C5.02093 3.74235 5.8234 3.29112 6.45298 2.5836C6.88659 2.09631 7.47158 1.6854 8.19164 1.36218C9.9759 0.561432 12.0227 0.56133 13.8072 1.36218C14.5273 1.68535 15.1122 2.09631 15.5458 2.5836C16.1753 3.29112 16.9779 3.74235 17.9311 3.9248C18.834 4.09766 19.4284 4.93431 19.2841 5.82957L18.7813 8.94915C18.522 8.93787 18.2536 8.95727 17.9809 9.01277L18.5249 5.63736C18.5953 5.20076 18.2962 4.78309 17.8583 4.70631C16.7043 4.50416 15.7303 3.96446 14.9631 3.10222C14.6033 2.69801 14.1073 2.35219 13.4889 2.07448C11.9073 1.36427 10.0928 1.36416 8.51105 2.07402C7.89214 2.35179 7.39581 2.6977 7.03588 3.10222C6.26864 3.96441 5.29453 4.5041 4.14055 4.70631C3.70262 4.78304 3.40358 5.20071 3.47396 5.63736L4.01776 9.01135C3.77006 8.96123 3.48792 8.93752 3.21752 8.9492L2.71474 5.82962C2.57043 4.93431 3.16476 4.09766 4.06773 3.9248ZM3.35859 9.70775C4.61093 9.70775 5.68198 10.6297 5.68198 11.8174V14.9111V15.4741H5.12716V12.5128C5.12716 11.3869 4.25745 10.5049 3.14724 10.5049C2.05552 10.5049 1.16732 11.3931 1.16732 12.4848C1.16732 12.4969 1.16742 12.5088 1.16768 12.5208C1.08145 12.2993 1.03519 12.0621 1.03519 11.8173C1.03514 10.6342 2.10122 9.70775 3.35859 9.70775Z" fill="black"/>
</svg>
