<svg width="122" height="94" viewBox="0 0 122 94" fill="none" xmlns="http://www.w3.org/2000/svg">
<path d="M96.0008 34.2893C96.0008 53.2268 71.3258 79.9 58.4008 94C51.3508 84.6 20.8008 53.2268 20.8008 34.2893C20.8008 15.3518 37.6349 0 58.4008 0C79.1667 0 96.0008 15.3518 96.0008 34.2893Z" fill="#98D8FC"/>
<circle cx="58.4008" cy="37.6" r="25.85" fill="white"/>
<path fill-rule="evenodd" clip-rule="evenodd" d="M74.5298 29.1869C74.5436 28.9573 74.5506 28.7259 74.5506 28.4929C74.5506 21.9829 69.075 16.7056 62.3204 16.7056C59.0152 16.7056 56.0162 17.9692 53.8152 20.0225C52.3306 19.4052 50.6939 19.0632 48.9744 19.0632C42.2198 19.0632 36.7441 24.3406 36.7441 30.8505C36.7441 33.1643 37.4358 35.3224 38.6308 37.1431C38.2778 38.1421 38.0893 39.1942 38.0893 40.2806C38.0893 46.7906 44.8592 52.0679 53.2103 52.0679C55.924 52.0679 58.4707 51.5107 60.6724 50.535C62.5627 51.8039 64.8037 52.5386 67.2065 52.5386C73.9611 52.5386 79.4368 46.7335 79.4368 39.5725C79.4368 35.3234 77.5088 31.5517 74.5298 29.1869Z" fill="#98D8FC"/>
<path d="M47.5849 43.1528C46.6705 43.1528 45.9277 43.8964 45.9277 44.81C45.9277 45.7235 46.6705 46.4671 47.5849 46.4671C48.4992 46.4671 49.242 45.7235 49.242 44.81C49.242 43.8964 48.4992 43.1528 47.5849 43.1528Z" fill="white"/>
<path d="M57.5233 39.8389C55.6962 39.8389 54.209 41.3253 54.209 43.1531C54.209 44.981 55.6962 46.4674 57.5233 46.4674C59.3503 46.4674 60.8375 44.981 60.8375 43.1531C60.8375 41.3253 59.3503 39.8389 57.5233 39.8389ZM57.5233 43.9817C57.0657 43.9817 56.6947 43.6107 56.6947 43.1531C56.6947 42.6954 57.0657 42.3246 57.5233 42.3246C57.9808 42.3246 58.3518 42.6954 58.3518 43.1531C58.3518 43.6107 57.9808 43.9817 57.5233 43.9817Z" fill="white"/>
<path d="M73.3817 41.4961H70.6431C70.3939 40.7921 69.8319 40.2407 69.1284 39.99V26.5818C69.1284 24.754 67.6411 23.2676 65.8141 23.2676C63.987 23.2676 62.4998 24.754 62.4998 26.5818V32.3818C62.4998 32.839 62.1276 33.2104 61.6713 33.2104H61.5187C61.1754 32.248 60.2643 31.5533 59.1855 31.5533V36.5247C60.2643 36.5247 61.1754 35.8299 61.5187 34.8675H61.6713C63.0419 34.8675 64.157 33.7525 64.157 32.3818V26.5818C64.157 25.6683 64.8997 24.9247 65.8141 24.9247C66.7284 24.9247 67.4712 25.6683 67.4712 26.5818V39.99C66.7677 40.2407 66.2057 40.7921 65.9565 41.4961H63.3284C62.8704 41.4961 62.4998 41.8667 62.4998 42.3246V45.6389C62.4998 46.0969 62.8704 46.4675 63.3284 46.4675H73.3817C73.8397 46.4675 74.2102 46.0969 74.2102 45.6389V42.3246C74.2102 41.8667 73.8397 41.4961 73.3817 41.4961Z" fill="white"/>
<path d="M57.5248 38.1823V33.2109H50.8963V37.3538C50.8963 37.8114 50.5253 38.1823 50.0677 38.1823H47.582V41.4966C49.4091 41.4966 50.8963 42.983 50.8963 44.8109H52.8589C52.6732 44.29 52.5534 43.7377 52.5534 43.1538C52.5534 40.4124 54.7834 38.1823 57.5248 38.1823Z" fill="white"/>
<path d="M46.7563 36.5252C48.2442 36.5252 45.8059 36.5252 49.242 36.5252V33.2109H46.7563C46.2987 33.2109 45.9277 33.5818 45.9277 34.0395V35.6966C45.9277 36.1546 46.2983 36.5252 46.7563 36.5252Z" fill="white"/>
<path d="M57.5248 31.5541V29.897H47.582V31.5541C51.2131 31.5541 54.0005 31.5541 57.5248 31.5541Z" fill="white"/>
<path d="M53.3822 24.9248H51.7251C49.7239 24.9248 48.051 26.3504 47.666 28.2391H57.4413C57.0564 26.3504 55.3835 24.9248 53.3822 24.9248Z" fill="white"/>
<circle cx="77.6887" cy="26.3991" r="2.80001" fill="#98D8FC"/>
<circle cx="74.493" cy="21.5994" r="1.20001" fill="#98D8FC"/>
<rect y="49" width="122" height="29" fill="white"/>
<path d="M12.494 60.62L13.34 62.276C12.944 62.696 12.374 63.038 11.63 63.302C10.898 63.566 10.124 63.698 9.308 63.698C7.388 63.698 5.822 63.104 4.61 61.916C3.41 60.728 2.81 59.156 2.81 57.2C2.81 55.328 3.38 53.774 4.52 52.538C5.648 51.314 7.226 50.702 9.254 50.702C10.862 50.702 12.14 51.128 13.088 51.98L12.098 53.618C11.246 53.054 10.298 52.772 9.254 52.772C8.054 52.772 7.07 53.174 6.302 53.978C5.534 54.782 5.15 55.856 5.15 57.2C5.15 58.52 5.552 59.588 6.356 60.404C7.172 61.22 8.222 61.628 9.506 61.628C10.61 61.628 11.606 61.292 12.494 60.62ZM23.4249 63.5H15.5409V50.9H17.7549V61.43H23.4249V63.5ZM32.8547 63.5H25.3847V50.9H32.6747V52.97H27.5987V56.102H32.1347V58.172H27.5987V61.43H32.8547V63.5ZM36.3502 63.5H34.1182L39.4462 50.864H41.3902L46.7182 63.5H44.3602L43.0462 60.278H37.6642L36.3502 63.5ZM42.2002 58.208L40.3642 53.726L38.5102 58.208H42.2002ZM59.3694 50.9V63.5H57.6054L50.6754 54.77V63.5H48.6054V50.9H50.3694L57.2994 59.666V50.9H59.3694Z" fill="#62C6FF"/>
<path d="M71.6092 60.62L72.4552 62.276C72.0592 62.696 71.4892 63.038 70.7452 63.302C70.0132 63.566 69.2392 63.698 68.4232 63.698C66.5032 63.698 64.9372 63.104 63.7252 61.916C62.5252 60.728 61.9252 59.156 61.9252 57.2C61.9252 55.328 62.4952 53.774 63.6352 52.538C64.7632 51.314 66.3412 50.702 68.3692 50.702C69.9772 50.702 71.2552 51.128 72.2032 51.98L71.2132 53.618C70.3612 53.054 69.4132 52.772 68.3692 52.772C67.1692 52.772 66.1852 53.174 65.4172 53.978C64.6492 54.782 64.2652 55.856 64.2652 57.2C64.2652 58.52 64.6672 59.588 65.4712 60.404C66.2872 61.22 67.3372 61.628 68.6212 61.628C69.7252 61.628 70.7212 61.292 71.6092 60.62ZM84.8262 63.5H82.6302V58.118H76.8702V63.5H74.6562V50.9H76.8702V56.048H82.6302V50.9H84.8262V63.5ZM88.9264 63.5H86.6944L92.0224 50.864H93.9664L99.2944 63.5H96.9364L95.6224 60.278H90.2404L88.9264 63.5ZM94.7764 58.208L92.9404 53.726L91.0864 58.208H94.7764ZM103.666 63.5H101.452V50.9H103.666V63.5ZM109.636 58.784V63.5H107.422V50.9C108.046 50.9 108.724 50.894 109.456 50.882C110.188 50.87 110.788 50.864 111.256 50.864C114.304 50.864 115.828 52.16 115.828 54.752C115.828 55.712 115.582 56.504 115.09 57.128C114.598 57.728 114.034 58.136 113.398 58.352L117.34 63.5H114.658L111.184 58.784H109.636ZM111.148 52.934C111.088 52.934 110.992 52.94 110.86 52.952C110.728 52.952 110.542 52.958 110.302 52.97C110.062 52.97 109.84 52.97 109.636 52.97V56.714H111.076C111.784 56.714 112.36 56.54 112.804 56.192C113.26 55.844 113.488 55.37 113.488 54.77C113.488 53.546 112.708 52.934 111.148 52.934Z" fill="#757575"/>
<path d="M7.96858 69.5587L9.83974 66.3423H11.6253L8.93473 70.7573L11.6864 75.2456H9.88254L7.96858 71.9802L6.04849 75.2456H4.25071L7.00853 70.7573L4.31186 66.3423H6.09741L7.96858 69.5587ZM16.8168 68.6293H18.2967V75.2456H16.8168V70.8306L14.2241 75.2456H12.7443V68.6293H14.2241V73.0442L16.8168 68.6293ZM23.8062 73.4172L25.763 68.6293H27.6219V75.2456H26.136V70.8673L24.3137 75.2456H23.3048L21.4764 70.8429V75.2456H19.9905V68.6293H21.8616L23.8062 73.4172ZM34.599 75.2456H33.1131V73.0381C32.7299 73.1278 32.3263 73.1727 31.9023 73.1727C30.9973 73.1727 30.3063 72.9566 29.8294 72.5245C29.3524 72.0883 29.1139 71.4646 29.1139 70.6533V68.6232H30.5998V70.6533C30.5998 71.1343 30.7058 71.4747 30.9178 71.6745C31.1339 71.8743 31.462 71.9741 31.9023 71.9741C32.3018 71.9741 32.7054 71.9272 33.1131 71.8335V68.6293H34.599V75.2456ZM40.3103 68.6293H41.7901V75.2456H40.3103V70.8306L37.7176 75.2456H36.2378V68.6293H37.7176V73.0442L40.3103 68.6293ZM46.0889 74.1816C46.4599 74.1816 46.7677 74.0736 47.0123 73.8575C47.2569 73.6415 47.3873 73.3744 47.4036 73.0565H48.8039C48.7876 73.4682 48.6592 73.8534 48.4187 74.2122C48.1782 74.5669 47.852 74.8481 47.4403 75.056C47.0286 75.264 46.5842 75.3679 46.1073 75.3679C45.1819 75.3679 44.4481 75.0683 43.9059 74.469C43.3637 73.8698 43.0926 73.0422 43.0926 71.9864V71.8335C43.0926 70.8266 43.3617 70.0214 43.8998 69.4181C44.4379 68.8107 45.1717 68.507 46.1011 68.507C46.8879 68.507 47.528 68.7373 48.0212 69.198C48.5186 69.6545 48.7795 70.2558 48.8039 71.0019H47.4036C47.3873 70.6227 47.2569 70.3109 47.0123 70.0663C46.7717 69.8217 46.464 69.6994 46.0889 69.6994C45.6079 69.6994 45.2369 69.8747 44.976 70.2253C44.7151 70.5718 44.5826 71.0997 44.5785 71.809V72.0475C44.5785 72.765 44.7069 73.3011 44.9638 73.6557C45.2247 74.0063 45.5997 74.1816 46.0889 74.1816ZM55.1329 69.8095H52.9865V75.2456H51.5006V69.8095H49.3787V68.6293H55.1329V69.8095ZM58.4777 72.6284H57.7256V75.2456H56.2397V68.6293H57.7256V71.2709H58.3799L60.2082 68.6293H62.0427L59.6518 71.7968L62.2445 75.2456H60.3122L58.4777 72.6284ZM67.0141 75.2456C66.9489 75.1192 66.8918 74.9134 66.8429 74.628C66.37 75.1213 65.7911 75.3679 65.1063 75.3679C64.4418 75.3679 63.8996 75.1783 63.4797 74.7992C63.0598 74.4201 62.8499 73.9513 62.8499 73.3928C62.8499 72.6875 63.1108 72.1474 63.6326 71.7723C64.1585 71.3932 64.9086 71.2037 65.8829 71.2037H66.794V70.7695C66.794 70.4271 66.6982 70.1539 66.5066 69.9501C66.315 69.7422 66.0235 69.6382 65.6322 69.6382C65.2938 69.6382 65.0166 69.7238 64.8005 69.8951C64.5845 70.0622 64.4764 70.2762 64.4764 70.5371H62.9905C62.9905 70.1743 63.1108 69.836 63.3513 69.5221C63.5918 69.2041 63.9179 68.9554 64.3297 68.776C64.7455 68.5967 65.2082 68.507 65.7178 68.507C66.4923 68.507 67.1099 68.7027 67.5706 69.094C68.0312 69.4813 68.2677 70.0276 68.2799 70.7328V73.7169C68.2799 74.3121 68.3635 74.787 68.5306 75.1417V75.2456H67.0141ZM65.3814 74.1755C65.675 74.1755 65.9501 74.1042 66.207 73.9615C66.4679 73.8188 66.6635 73.6272 66.794 73.3867V72.1392H65.9929C65.4426 72.1392 65.0288 72.235 64.7516 72.4266C64.4744 72.6182 64.3358 72.8893 64.3358 73.2399C64.3358 73.5253 64.4296 73.7536 64.6171 73.9248C64.8087 74.0919 65.0635 74.1755 65.3814 74.1755ZM76.8836 73.4172L78.8404 68.6293H80.6993V75.2456H79.2134V70.8673L77.3911 75.2456H76.3822L74.5538 70.8429V75.2456H73.0679V68.6293H74.939L76.8836 73.4172ZM85.2855 75.3679C84.3438 75.3679 83.5794 75.0723 82.9924 74.4812C82.4094 73.8861 82.1179 73.0952 82.1179 72.1087V71.9252C82.1179 71.2648 82.2443 70.6757 82.4971 70.158C82.7539 69.6362 83.1126 69.2306 83.5733 68.9411C84.0339 68.6517 84.5476 68.507 85.1142 68.507C86.0152 68.507 86.7102 68.7944 87.1994 69.3692C87.6927 69.944 87.9393 70.7573 87.9393 71.809V72.4083H83.6161C83.6609 72.9546 83.8423 73.3867 84.1603 73.7046C84.4824 74.0226 84.886 74.1816 85.3711 74.1816C86.0519 74.1816 86.6063 73.9064 87.0343 73.3561L87.8354 74.1205C87.5704 74.5159 87.2157 74.8237 86.7714 75.0438C86.3311 75.2599 85.8358 75.3679 85.2855 75.3679ZM85.1081 69.6994C84.7005 69.6994 84.3703 69.8421 84.1175 70.1274C83.8688 70.4128 83.7099 70.8103 83.6406 71.3198H86.4718V71.2098C86.4391 70.7124 86.3067 70.3374 86.0743 70.0846C85.8419 69.8278 85.5199 69.6994 85.1081 69.6994ZM92.2137 68.9962C93.0453 68.9962 93.7118 69.2754 94.2132 69.8339C94.7147 70.3883 94.9654 71.1425 94.9654 72.0964V72.1698C94.9654 73.1237 94.6922 73.8962 94.146 74.4874C93.6038 75.0785 92.8659 75.374 91.9324 75.374C91.0233 75.374 90.2895 75.0723 89.731 74.469C89.1725 73.8657 88.8933 73.0422 88.8933 71.9986V71.5705C88.8933 70.1437 89.146 69.0145 89.6515 68.1829C90.157 67.3513 90.9112 66.8315 91.914 66.6236C92.4766 66.5094 92.8394 66.3892 93.0025 66.2628C93.1696 66.1324 93.2532 65.9571 93.2532 65.7369H94.4517C94.4517 66.1487 94.3845 66.4829 94.2499 66.7398C94.1154 66.9966 93.9095 67.2065 93.6323 67.3696C93.3551 67.5286 92.8781 67.6794 92.2014 67.8221C91.5818 67.9526 91.1089 68.1849 90.7828 68.5192C90.4607 68.8535 90.2447 69.3162 90.1346 69.9073C90.7257 69.2999 91.4187 68.9962 92.2137 68.9962ZM91.9201 70.1886C91.4391 70.1886 91.062 70.3516 90.7889 70.6778C90.5158 70.9998 90.3792 71.4972 90.3792 72.1698C90.3792 72.8058 90.5137 73.3011 90.7828 73.6557C91.0518 74.0104 91.435 74.1877 91.9324 74.1877C92.4256 74.1877 92.8068 74.0104 93.0759 73.6557C93.349 73.297 93.4856 72.7589 93.4856 72.0414C93.4856 71.4707 93.349 71.0202 93.0759 70.69C92.8068 70.3557 92.4216 70.1886 91.9201 70.1886ZM99.044 75.3679C98.1023 75.3679 97.338 75.0723 96.7509 74.4812C96.168 73.8861 95.8765 73.0952 95.8765 72.1087V71.9252C95.8765 71.2648 96.0029 70.6757 96.2556 70.158C96.5124 69.6362 96.8712 69.2306 97.3318 68.9411C97.7925 68.6517 98.3061 68.507 98.8728 68.507C99.7737 68.507 100.469 68.7944 100.958 69.3692C101.451 69.944 101.698 70.7573 101.698 71.809V72.4083H97.3746C97.4195 72.9546 97.6009 73.3867 97.9189 73.7046C98.2409 74.0226 98.6445 74.1816 99.1296 74.1816C99.8104 74.1816 100.365 73.9064 100.793 73.3561L101.594 74.1205C101.329 74.5159 100.974 74.8237 100.53 75.0438C100.09 75.2599 99.5944 75.3679 99.044 75.3679ZM98.8667 69.6994C98.459 69.6994 98.1288 69.8421 97.8761 70.1274C97.6274 70.4128 97.4684 70.8103 97.3991 71.3198H100.23V71.2098C100.198 70.7124 100.065 70.3374 99.8328 70.0846C99.6005 69.8278 99.2784 69.6994 98.8667 69.6994ZM108.479 68.6293V75.2456H106.993V69.8278H105.122L105 72.1331C104.922 73.242 104.708 74.0389 104.358 74.524C104.011 75.0051 103.479 75.2456 102.762 75.2456H102.303L102.297 74.0104L102.603 73.9798C102.929 73.935 103.165 73.7373 103.312 73.3867C103.463 73.032 103.559 72.3879 103.6 71.4544L103.722 68.6293H108.479ZM114.191 68.6293H115.67V75.2456H114.191V70.8306L111.598 75.2456H110.118V68.6293H111.598V73.0442L114.191 68.6293Z" fill="#62C6FF"/>
<path d="M0 48.5H122" stroke="#62C6FF"/>
<path d="M0 77.5H122" stroke="#62C6FF"/>
</svg>
