<svg width="90" height="90" viewBox="0 0 90 90" fill="none" xmlns="http://www.w3.org/2000/svg">
<path fill-rule="evenodd" clip-rule="evenodd" d="M45.2101 0C47.3277 0 48.789 1.66649 50.2365 3.31718C51.0937 4.29497 51.9434 5.26382 52.4635 5.35789C52.996 5.45471 54.1395 4.82094 55.276 4.1906C57.1563 3.14758 59.0263 2.11143 60.9409 2.8228C62.8769 3.5424 63.6021 5.56801 64.3245 7.58675C64.7524 8.78151 65.1783 9.97215 65.5855 10.2104C65.9935 10.4487 67.2477 10.2296 68.4999 10.0113C70.6024 9.64394 72.7021 9.27727 74.2611 10.5894C75.8118 11.8954 75.8022 14.0275 75.7925 16.1595C75.787 17.4181 75.7809 18.6768 76.0856 19.0372C76.3904 19.3984 77.6329 19.6072 78.8761 19.8159C80.9862 20.1709 83.0997 20.5259 84.1337 22.2871C85.165 24.0443 84.4536 26.0486 83.7395 28.0598C83.3109 29.2662 82.8809 30.4768 83.0543 30.9416C83.2276 31.4051 84.3277 32.0437 85.4333 32.6857C87.3074 33.7733 89.1925 34.8672 89.5661 36.9209C89.9335 38.9397 88.5967 40.6185 87.2483 42.3132C86.4213 43.3527 85.5868 44.4012 85.5868 45C85.5868 45.5994 86.4213 46.6479 87.2483 47.6875C88.5967 49.3815 89.9335 51.0603 89.5661 53.0791C89.1925 55.1328 87.3074 56.2273 85.4333 57.315C84.3277 57.9563 83.2276 58.5949 83.0543 59.0591C82.8809 59.5239 83.3109 60.7345 83.7395 61.9409C84.4536 63.9521 85.165 65.9564 84.1337 67.7129C83.0997 69.4748 80.9862 69.8298 78.8761 70.1841C77.6329 70.3935 76.3904 70.6023 76.0856 70.9628C75.7809 71.3239 75.787 72.5826 75.7925 73.8412C75.8022 75.9732 75.8118 78.1052 74.2611 79.4112C72.7021 80.7234 70.6024 80.3568 68.4999 79.9894C67.2477 79.771 65.9935 79.552 65.5855 79.7903C65.1783 80.0285 64.7524 81.2192 64.3245 82.4139C63.6021 84.4327 62.8769 86.4583 60.9409 87.1779C59.0263 87.8893 57.1563 86.8524 55.276 85.8101C54.1395 85.1797 52.9967 84.546 52.4635 84.6428C51.9434 84.7369 51.0937 85.7057 50.2365 86.6828C48.789 88.3335 47.3277 90 45.2101 90C43.0931 90 41.6318 88.3335 40.1836 86.6828C39.3271 85.705 38.4774 84.7362 37.9566 84.6421C37.4241 84.5453 36.2813 85.1791 35.1441 85.8094C33.2638 86.8524 31.3945 87.8886 29.4799 87.1772C27.5432 86.4576 26.8187 84.432 26.0957 82.4133C25.6684 81.2192 25.2419 80.0278 24.8346 79.7896C24.4273 79.5513 23.1731 79.7704 21.9202 79.9894C19.8178 80.3561 17.718 80.7227 16.159 79.4106C14.6083 78.1046 14.6179 75.9725 14.6276 73.8405C14.6338 72.5819 14.6393 71.3232 14.3345 70.9628C14.0297 70.6016 12.7879 70.3928 11.544 70.1841C9.43393 69.8298 7.32043 69.4741 6.28638 67.7129C5.25577 65.9557 5.96715 63.9514 6.68129 61.9402C7.1099 60.7338 7.53921 59.5232 7.36584 59.0584C7.19315 58.5949 6.09306 57.9563 4.98677 57.3143C3.11337 56.2267 1.2276 55.1328 0.854706 53.0791C0.48732 51.0603 1.82339 49.3808 3.17185 47.6868C3.9995 46.6473 4.83404 45.5988 4.83404 44.9993C4.83404 44.4006 3.9995 43.3521 3.17185 42.3125C1.82339 40.6178 0.48732 38.9397 0.854706 36.9202C1.2276 34.8665 3.11337 33.7727 4.98677 32.685C6.09306 32.043 7.19315 31.4044 7.36584 30.9409C7.53921 30.4761 7.1099 29.2655 6.68129 28.0591C5.96715 26.0479 5.25508 24.0436 6.28638 22.2871C7.32043 20.5252 9.43393 20.1702 11.544 19.8159C12.7879 19.6065 14.0297 19.3977 14.3345 19.0372C14.6393 18.6761 14.6338 17.4174 14.6276 16.1588C14.6179 14.0268 14.6083 11.8941 16.159 10.5894C17.718 9.27727 19.8178 9.64325 21.9202 10.0106C23.1731 10.229 24.4273 10.448 24.8346 10.2097C25.2419 9.97215 25.6684 8.78082 26.0957 7.58606C26.818 5.56801 27.5439 3.54172 29.4799 2.82211C31.3945 2.11075 33.2638 3.14758 35.1441 4.18991C36.2813 4.82025 37.4241 5.45403 37.9566 5.35721C38.4774 5.26314 39.3271 4.29428 40.1836 3.31718C41.6318 1.66649 43.0931 0 45.2101 0ZM67.0358 22.7067C66.063 22.7067 65.2746 23.4936 65.2746 24.4645C65.2746 24.8971 65.4314 25.2933 65.6915 25.5995L65.6963 25.6057C65.7321 25.6476 65.7699 25.6874 65.8091 25.7252C70.5459 30.7652 73.4465 37.5444 73.4465 45C73.4465 52.7824 70.2866 59.8274 65.1769 64.9271C60.0672 70.0275 53.0077 73.1813 45.2101 73.1813C41.8719 73.1813 38.6693 72.6031 35.6972 71.5416C35.6443 71.5196 35.5892 71.5004 35.5335 71.4832L35.5294 71.4812C35.3677 71.4324 35.1957 71.4063 35.0182 71.4063C34.0461 71.4063 33.2569 72.1932 33.2569 73.1641C33.2569 73.9606 33.7881 74.6329 34.5153 74.8492C37.8568 76.0419 41.4578 76.6921 45.2101 76.6921C53.9785 76.6921 61.9172 73.1442 67.6633 67.4094C73.41 61.6738 76.9642 53.7513 76.9642 45C76.9642 36.6257 73.7093 29.0108 68.3946 23.3453C68.0712 22.9552 67.5828 22.7067 67.0358 22.7067ZM61.7204 18.2449C60.7483 18.2449 59.9592 19.0318 59.9592 20.0027C59.9592 20.9729 60.7483 21.7605 61.7204 21.7605C62.6932 21.7605 63.4817 20.9729 63.4817 20.0027C63.4817 19.0318 62.6932 18.2449 61.7204 18.2449ZM56.0039 15.1865C52.6341 13.9712 49.0002 13.3079 45.2101 13.3079C36.4416 13.3079 28.5036 16.8551 22.7568 22.5906C17.0108 28.3255 13.4559 36.2487 13.4559 45C13.4559 53.3565 16.697 60.957 21.9918 66.619C22.3152 67.0049 22.8009 67.2507 23.3444 67.2507C24.3172 67.2507 25.1056 66.4639 25.1056 65.4929C25.1056 65.0617 24.9501 64.6669 24.6915 64.3613V64.36L24.6846 64.3524C24.6502 64.3119 24.6137 64.2735 24.5759 64.2371C19.8604 59.2005 16.9736 52.4371 16.9736 45C16.9736 37.2176 20.1342 30.1719 25.2439 25.0729C30.3536 19.9725 37.4131 16.8187 45.2101 16.8187C48.5798 16.8187 51.8113 17.4078 54.8075 18.4886C55.0194 18.5786 55.2526 18.628 55.4976 18.628C56.4704 18.628 57.2588 17.8411 57.2588 16.8702C57.2588 16.0751 56.7297 15.4035 56.0039 15.1865ZM28.6997 68.2395C27.7276 68.2395 26.9384 69.0264 26.9384 69.9973C26.9384 70.9682 27.7276 71.7551 28.6997 71.7551C29.6725 71.7551 30.4609 70.9682 30.4609 69.9973C30.4609 69.0264 29.6725 68.2395 28.6997 68.2395ZM47.5988 5.62157C46.6775 4.571 45.7481 3.51082 45.2107 3.51082C44.6727 3.51082 43.7433 4.571 42.822 5.62157C41.561 7.0594 40.3102 8.48557 38.5751 8.80005C36.8138 9.11934 35.1228 8.18138 33.4406 7.24823C32.2683 6.59798 31.1021 5.95184 30.7031 6.10016C30.3096 6.24641 29.8576 7.50847 29.4076 8.76572C28.7671 10.5544 28.1293 12.3376 26.6075 13.2269C25.0754 14.1229 23.1944 13.7947 21.3162 13.4665C20.0193 13.2406 18.7232 13.014 18.4273 13.2639C18.1205 13.5221 18.126 14.8343 18.1322 16.1458C18.1411 18.0512 18.1494 19.9567 17.0142 21.3004C15.8825 22.6401 14.0029 22.9559 12.1212 23.2718C10.8189 23.4908 9.51305 23.7099 9.31009 24.0566C9.10782 24.4006 9.54951 25.6455 9.99327 26.8938C10.6317 28.6922 11.2722 30.496 10.6503 32.1618C10.0366 33.8063 8.39576 34.7587 6.74596 35.7166C5.5695 36.3991 4.38547 37.0864 4.3036 37.5382C4.22035 37.9962 5.06658 39.0591 5.92037 40.1324C7.13123 41.6533 8.35241 43.1873 8.35241 45C8.35241 46.8134 7.13123 48.3467 5.92037 49.8683C5.06658 50.9409 4.22035 52.0038 4.3036 52.4625C4.38547 52.9143 5.5695 53.6009 6.74596 54.2841C8.39576 55.2413 10.0366 56.1937 10.6503 57.8382C11.2722 59.5047 10.6317 61.3085 9.99327 63.1068C9.54951 64.3552 9.10782 65.5994 9.31009 65.9441C9.51305 66.2901 10.8182 66.5099 12.1212 66.7282C14.0036 67.0448 15.8825 67.3599 17.0142 68.7003C18.1494 70.0433 18.1411 71.9488 18.1322 73.8549C18.126 75.1664 18.1205 76.4779 18.4273 76.7368C18.7239 76.986 20.0193 76.7601 21.3162 76.5335C23.1944 76.206 25.0754 75.8771 26.6075 76.7731C28.1293 77.6624 28.7678 79.4456 29.4076 81.2343C29.8576 82.4915 30.3096 83.7543 30.7031 83.8998C31.1021 84.0482 32.2683 83.402 33.4406 82.7518C35.1228 81.8193 36.8138 80.8813 38.5751 81.2006C40.3109 81.5144 41.561 82.9406 42.822 84.3791C43.7433 85.4297 44.6727 86.4899 45.2107 86.4899C45.7481 86.4899 46.6775 85.4297 47.5988 84.3791C48.8598 82.9406 50.1106 81.5144 51.845 81.2006C53.6063 80.8813 55.298 81.8193 56.9802 82.7518C58.1525 83.402 59.3186 84.0482 59.7177 83.8998C60.1112 83.7543 60.5632 82.4915 61.0132 81.2343C61.6537 79.4456 62.2915 77.663 63.8126 76.7731C65.3454 75.8771 67.2257 76.2053 69.1039 76.5335C70.4015 76.7601 71.697 76.9867 71.9942 76.7368C72.3003 76.4779 72.2948 75.1664 72.2886 73.8549C72.2797 71.9495 72.2714 70.0433 73.4066 68.7003C74.5383 67.3599 76.4172 67.0448 78.2989 66.7282C79.602 66.5099 80.9077 66.2901 81.1107 65.9441C81.313 65.5994 80.8713 64.3552 80.4275 63.1068C79.7891 61.3085 79.1486 59.5047 79.7705 57.8382C80.3835 56.1937 82.025 55.2413 83.6742 54.2841C84.8513 53.6009 86.0346 52.9143 86.1172 52.4625C86.2004 52.0038 85.3542 50.9409 84.5004 49.8683C83.2896 48.3467 82.0684 46.8134 82.0684 45C82.0684 43.1873 83.2896 41.6533 84.5004 40.1324C85.3542 39.0591 86.2004 37.9962 86.1172 37.5382C86.0346 37.0864 84.8513 36.3991 83.6742 35.7166C82.025 34.7587 80.3835 33.8063 79.7705 32.1618C79.1486 30.496 79.7891 28.6922 80.4275 26.8938C80.8713 25.6455 81.313 24.4006 81.1107 24.0566C80.9077 23.7099 79.602 23.4908 78.2989 23.2718C76.4172 22.9559 74.5383 22.6401 73.4066 21.3004C72.2714 19.9567 72.2797 18.0512 72.2886 16.1458C72.2948 14.8343 72.3003 13.5221 71.9942 13.2639C71.697 13.014 70.4015 13.2406 69.1039 13.4665C67.2257 13.7947 65.3454 14.1229 63.8133 13.2269C62.2915 12.3376 61.653 10.5544 61.0132 8.76572C60.5632 7.50847 60.1112 6.24641 59.7177 6.10016C59.3186 5.95184 58.1525 6.59798 56.9802 7.24823C55.2974 8.18138 53.6063 9.11934 51.845 8.80005C50.1099 8.48557 48.8598 7.0594 47.5988 5.62157Z" fill="#FFB617"/>
<path d="M25.584 54V51.72H29.736V40.2L25.776 40.92V38.856L30.72 37.2H32.28V51.72H36.744V54H25.584ZM45.5906 54.288C44.2946 54.288 43.1586 53.936 42.1826 53.232C41.2226 52.528 40.4786 51.528 39.9506 50.232C39.4226 48.92 39.1586 47.376 39.1586 45.6C39.1586 43.808 39.4226 42.264 39.9506 40.968C40.4786 39.672 41.2226 38.672 42.1826 37.968C43.1586 37.264 44.2946 36.912 45.5906 36.912C46.9026 36.912 48.0386 37.264 48.9986 37.968C49.9586 38.672 50.7026 39.672 51.2306 40.968C51.7586 42.264 52.0226 43.808 52.0226 45.6C52.0226 47.376 51.7586 48.92 51.2306 50.232C50.7026 51.528 49.9586 52.528 48.9986 53.232C48.0386 53.936 46.9026 54.288 45.5906 54.288ZM41.7506 45.6C41.7506 46.496 41.8306 47.312 41.9906 48.048C42.1506 48.784 42.3746 49.424 42.6626 49.968L46.8626 39.576C46.4626 39.384 46.0386 39.288 45.5906 39.288C44.4706 39.288 43.5506 39.856 42.8306 40.992C42.1106 42.112 41.7506 43.648 41.7506 45.6ZM45.5906 51.936C46.3426 51.936 47.0066 51.68 47.5826 51.168C48.1586 50.656 48.6066 49.928 48.9266 48.984C49.2626 48.024 49.4306 46.896 49.4306 45.6C49.4306 44.704 49.3506 43.888 49.1906 43.152C49.0306 42.416 48.8066 41.784 48.5186 41.256L44.3186 51.648C44.7186 51.84 45.1426 51.936 45.5906 51.936Z" fill="#FFB617"/>
<path d="M65.5 39L56 52.5" stroke="#FFB617" stroke-width="3" stroke-linecap="round" stroke-linejoin="round"/>
<circle cx="57" cy="41" r="2" stroke="#FFB617" stroke-width="2"/>
<circle cx="65" cy="51" r="2" stroke="#FFB617" stroke-width="2"/>
</svg>
