<svg width="103" height="82" viewBox="0 0 103 82" fill="none" xmlns="http://www.w3.org/2000/svg">
<path d="M82.6192 4.73742C82.2235 4.43409 81.7088 4.37066 81.2259 4.49703L69.1856 7.6875H63.3045C63.3045 7.6875 47.8999 0.59418 47.6905 0.518906C47.5134 0.454844 47.3297 0.402633 47.1413 0.402633C46.4664 0.402633 45.8575 0.817117 45.6272 1.44973C45.3259 2.27774 45.7576 3.19191 46.5904 3.49477C46.592 3.49477 46.592 3.49381 46.592 3.49381C46.7225 3.54025 61.3402 10.2338 61.3402 10.2338V29.8049L46.9689 36.3939C46.3391 36.6838 45.64 36.8359 44.9458 36.8359H10.2011C11.3584 36.777 12.4368 36.2946 13.2572 35.4765C14.1412 34.6002 14.6279 33.4336 14.6279 32.1914C14.6279 29.6305 12.5325 27.5469 9.95672 27.5469H5.60764V24.6641H9.95672C12.5325 24.6641 14.6279 22.5804 14.6279 20.0195C14.6279 17.4586 12.5323 15.375 9.95672 15.375H5.60764V12.4922H9.95672C11.206 12.4922 12.3795 12.0082 13.2573 11.1328C14.1412 10.2564 14.6279 9.08983 14.6279 7.84766C14.6279 5.36844 12.6641 3.33029 10.2019 3.20312H32.6895C33.5786 3.20312 34.3002 2.48402 34.3002 1.60156C34.3002 0.719102 33.5786 0 32.6895 0H10.4399C9.35268 0 8.29763 0.211246 7.30539 0.629414C6.34538 1.03317 5.48523 1.60957 4.74588 2.34629C4.00493 3.08157 3.42506 3.9368 3.01914 4.89133C2.59873 5.87773 2.38611 6.92676 2.38611 8.00781V32.0312C2.38611 33.1123 2.59873 34.1613 3.01898 35.1479C3.42489 36.1024 4.00477 36.9577 4.74572 37.6928C5.48507 38.4279 6.34522 39.0061 7.30523 39.4096C8.29746 39.8277 9.35268 40.0391 10.4399 40.0391H11.6941L1.2568 61.6557C0.530991 63.1587 0.630697 64.8982 1.52338 66.309C2.41011 67.7102 3.93084 68.5469 5.59122 68.5469H5.76872V77.1953C5.76872 79.8446 7.93649 82 10.601 82C13.2656 82 15.4333 79.8446 15.4333 77.1953V68.5469H15.6066C17.4423 68.5469 19.1437 67.4799 19.9411 65.8287L28.9135 47.2461H40.2891C40.9076 47.2461 41.4715 46.8939 41.74 46.3399L44.7945 40.0391C45.9527 40.0391 47.2701 39.8245 48.3187 39.3422L63.3045 32.5117H69.1856L81.2261 35.6221C81.3614 35.6575 81.4989 35.6548 81.6358 35.6548C81.988 35.6548 82.3344 35.53 82.6194 35.3116C83.015 35.0082 83.2466 34.5297 83.2466 34.0332V6.00586C83.2466 5.50921 83.015 5.04076 82.6192 4.73742ZM5.60764 8.00781C5.60764 7.44647 5.708 6.9077 5.88792 6.40625H9.95672C10.756 6.40625 11.4064 7.0528 11.4064 7.84766C11.4064 8.23235 11.256 8.5935 10.9794 8.86769C10.7068 9.13932 10.3436 9.28906 9.95672 9.28906H5.60764V8.00781ZM5.60764 18.5781H9.95672C10.756 18.5781 11.4064 19.2247 11.4064 20.0195C11.4064 20.8144 10.756 21.4609 9.95672 21.4609H5.60764V18.5781ZM5.88792 33.6328C5.708 33.1314 5.60764 32.5926 5.60764 32.0312V30.75H9.95672C10.756 30.75 11.4064 31.3966 11.4064 32.1914C11.4064 32.5761 11.256 32.9373 10.9794 33.2114C10.7068 33.4831 10.3436 33.6328 9.95672 33.6328H5.88792ZM12.2118 77.1953C12.2118 78.0784 11.4892 78.7969 10.601 78.7969C9.71285 78.7969 8.99026 78.0784 8.99026 77.1953V68.5469H12.2118V77.1953ZM17.037 64.4424C16.7725 64.99 16.2112 65.3438 15.6068 65.3438H5.59122C4.80387 65.3438 4.39103 64.8258 4.25009 64.603C4.10625 64.3759 3.80987 63.7689 4.16101 63.042L15.2676 40.0391H28.8198L17.037 64.4424ZM39.2773 44.043H30.4602L32.3934 40.0391H41.2183L39.2773 44.043ZM67.7832 29.3086H64.5617V10.8906H67.7832V29.3086ZM80.0251 31.9557L71.0048 29.5954V10.4436L80.0251 8.08341V31.9557Z" fill="#FFB617"/>
<path d="M39.9389 3.20312C40.8285 3.20312 41.5497 2.48608 41.5497 1.60156C41.5497 0.717044 40.8285 0 39.9389 0C39.0493 0 38.3281 0.717044 38.3281 1.60156C38.3281 2.48608 39.0493 3.20312 39.9389 3.20312Z" fill="#FFB617"/>
<path d="M21.5195 33.5929C21.6397 33.6201 21.7598 33.6331 21.8782 33.6331C22.6134 33.6331 23.2775 33.1292 23.4474 32.3864C24.329 28.5315 24.7761 24.3706 24.7761 20.0195C24.7761 15.6684 24.3291 11.5075 23.4474 7.65254C23.2501 6.79009 22.3864 6.24925 21.5196 6.44608C20.6521 6.64227 20.1089 7.50039 20.3061 8.36299C21.1229 11.9342 21.5546 15.965 21.5546 20.0195C21.5546 24.074 21.1229 28.1048 20.3061 31.676C20.1088 32.5386 20.6521 33.3967 21.5195 33.5929Z" fill="#FFB617"/>
<path d="M42.7729 28.3669C43.6625 28.3669 44.3836 27.6499 44.3836 26.7654C44.3836 25.8809 43.6625 25.1638 42.7729 25.1638C41.8833 25.1638 41.1621 25.8809 41.1621 26.7654C41.1621 27.6499 41.8833 28.3669 42.7729 28.3669Z" fill="#FFB617"/>
<path d="M35.9799 31.2305C36.8695 31.2305 37.5907 30.5134 37.5907 29.6289C37.5907 28.7444 36.8695 28.0273 35.9799 28.0273C35.0903 28.0273 34.3691 28.7444 34.3691 29.6289C34.3691 30.5134 35.0903 31.2305 35.9799 31.2305Z" fill="#FFB617"/>
<path d="M35.8901 12.0117C36.7797 12.0117 37.5008 11.2947 37.5008 10.4102C37.5008 9.52564 36.7797 8.80859 35.8901 8.80859C35.0005 8.80859 34.2793 9.52564 34.2793 10.4102C34.2793 11.2947 35.0005 12.0117 35.8901 12.0117Z" fill="#FFB617"/>
<path d="M45.5541 21.6211C46.4437 21.6211 47.1649 20.904 47.1649 20.0195C47.1649 19.135 46.4437 18.418 45.5541 18.418C44.6645 18.418 43.9434 19.135 43.9434 20.0195C43.9434 20.904 44.6645 21.6211 45.5541 21.6211Z" fill="#FFB617"/>
<path d="M31.0586 20.0196C31.0586 22.6689 33.2264 24.8243 35.8909 24.8243C38.5554 24.8243 40.7232 22.6689 40.7232 20.0196C40.7232 19.2686 40.5487 18.5574 40.2384 17.9236L43.8019 14.3387C44.4272 13.7096 44.4212 12.6955 43.7885 12.0738C43.1558 11.4519 42.1358 11.4578 41.5105 12.0871L37.9467 15.6725C37.3224 15.3795 36.6257 15.2149 35.8909 15.2149C33.2264 15.2149 31.0586 17.3703 31.0586 20.0196ZM37.5017 20.0196C37.5017 20.9041 36.7805 21.6212 35.8909 21.6212C35.0013 21.6212 34.2801 20.9041 34.2801 20.0196C34.2801 19.1351 35.0013 18.418 35.8909 18.418C36.7805 18.418 37.5017 19.1351 37.5017 20.0196Z" fill="#FFB617"/>
<path d="M93 15C94.6 15 99 15 101 15" stroke="#FFB617" stroke-width="3" stroke-linecap="round" stroke-linejoin="round"/>
<path d="M93 28C94.6 28 99 28 101 28" stroke="#FFB617" stroke-width="3" stroke-linecap="round" stroke-linejoin="round"/>
<path d="M94 22C95 22 97.75 22 99 22" stroke="#FFB617" stroke-width="3" stroke-linecap="round" stroke-linejoin="round"/>
</svg>
