<svg width="81" height="81" viewBox="0 0 81 81" fill="none" xmlns="http://www.w3.org/2000/svg">
<path d="M53.043 52.3992C53.4196 52.716 53.9851 52.6696 54.3044 52.2895C54.6224 51.9109 54.5732 51.3462 54.1947 51.0282L44.4642 42.8548C44.7025 42.3879 44.8508 41.8679 44.8859 41.3174L50.5677 35.5569C51.6027 34.5501 51.5905 32.7511 50.5416 31.7585C49.537 30.7203 47.7355 30.7367 46.7432 31.7846L41.4577 37.1432C41.0281 37.0842 40.5659 37.1009 40.1456 37.1882L30.5772 28.7818C29.5184 27.7986 27.7234 27.9024 26.7848 29.0002C25.7996 30.1058 25.8976 31.807 27.0032 32.7923L31.0629 36.2895C31.4323 36.6186 31.9978 36.586 32.3271 36.2169C32.6561 35.8478 32.6234 35.2817 32.2543 34.9528L28.1948 31.4556C27.8262 31.1272 27.7936 30.5601 28.122 30.1916C28.4347 29.8256 29.0338 29.7913 29.3861 30.1188L38.402 38.0328C37.9403 38.42 37.5685 38.9106 37.3216 39.4684L34.9276 37.3351C34.5585 37.006 33.9925 37.0387 33.6635 37.4079C33.3346 37.777 33.3672 38.343 33.7363 38.672L37.0218 41.5996C37.2843 43.5277 38.9406 45.0187 40.9397 45.0187C41.8293 45.0187 42.651 44.7234 43.3125 44.2258L53.043 52.3992ZM48.0182 33.0421C48.349 32.6926 48.9486 32.6885 49.2843 33.0335C49.6341 33.3644 49.638 33.964 49.2929 34.2996L44.4383 39.2215C44.1541 38.6841 43.75 38.2198 43.2616 37.8644L48.0182 33.0421ZM40.9397 43.2282C39.746 43.2282 38.775 42.257 38.775 41.0635C38.775 39.8699 39.7461 38.8988 40.9397 38.8988C42.1334 38.8988 43.1044 39.8699 43.1044 41.0635C43.1044 42.257 42.1334 43.2282 40.9397 43.2282Z" fill="#FFB617"/>
<path d="M40 17C40 16.4477 40.4477 16 41 16C41.5523 16 42 16.4477 42 17V19C42 19.5523 41.5523 20 41 20C40.4477 20 40 19.5523 40 19V17Z" stroke="#FFB617" stroke-width="2" stroke-linecap="round" stroke-linejoin="round"/>
<path d="M56.5351 23.1213C56.9256 22.7308 57.5588 22.7308 57.9493 23.1213C58.3398 23.5118 58.3398 24.145 57.9493 24.5355L56.5351 25.9497C56.1446 26.3403 55.5114 26.3403 55.1209 25.9497C54.7303 25.5592 54.7303 24.9261 55.1209 24.5355L56.5351 23.1213Z" stroke="#FFB617" stroke-width="2" stroke-linecap="round" stroke-linejoin="round"/>
<path d="M64.5352 39.5356C65.0874 39.5356 65.5352 39.9834 65.5352 40.5356C65.5352 41.0879 65.0874 41.5356 64.5352 41.5356L62.5352 41.5356C61.9829 41.5356 61.5352 41.0879 61.5352 40.5356C61.5352 39.9834 61.9829 39.5356 62.5352 39.5356L64.5352 39.5356Z" stroke="#FFB617" stroke-width="2" stroke-linecap="round" stroke-linejoin="round"/>
<path d="M57.9509 56.5356C58.3415 56.9261 58.3415 57.5593 57.9509 57.9498C57.5604 58.3403 56.9273 58.3403 56.5367 57.9498L55.1225 56.5356C54.732 56.145 54.732 55.5119 55.1225 55.1214C55.513 54.7308 56.1462 54.7308 56.5367 55.1214L57.9509 56.5356Z" stroke="#FFB617" stroke-width="2" stroke-linecap="round" stroke-linejoin="round"/>
<path d="M42 65C42 65.5523 41.5523 66 41 66C40.4477 66 40 65.5523 40 65L40 63C40 62.4477 40.4477 62 41 62C41.5523 62 42 62.4477 42 63L42 65Z" stroke="#FFB617" stroke-width="2" stroke-linecap="round" stroke-linejoin="round"/>
<path d="M24.0001 58.4143C23.6096 58.8048 22.9764 58.8048 22.5859 58.4143C22.1953 58.0238 22.1953 57.3906 22.5859 57.0001L24.0001 55.5859C24.3906 55.1954 25.0238 55.1954 25.4143 55.5859C25.8048 55.9764 25.8048 56.6096 25.4143 57.0001L24.0001 58.4143Z" stroke="#FFB617" stroke-width="2" stroke-linecap="round" stroke-linejoin="round"/>
<path d="M16 42C15.4477 42 15 41.5523 15 41C15 40.4477 15.4477 40 16 40L18 40C18.5523 40 19 40.4477 19 41C19 41.5523 18.5523 42 18 42L16 42Z" stroke="#FFB617" stroke-width="2" stroke-linecap="round" stroke-linejoin="round"/>
<path d="M21.1424 24.8095C20.7389 24.4499 20.7034 23.8313 21.063 23.4279C21.4226 23.0245 22.0411 22.9889 22.4446 23.3485L23.2071 24.0282L23.9696 24.7079C24.3731 25.0675 24.4086 25.686 24.049 26.0894C23.6894 26.4929 23.0708 26.5284 22.6674 26.1688L21.1424 24.8095Z" stroke="#FFB617" stroke-width="2" stroke-linecap="round" stroke-linejoin="round"/>
<path d="M61.943 8.51949C55.8147 4.40228 48.4379 2 40.5 2C19.237 2 2 19.237 2 40.5C2 61.763 19.237 79 40.5 79C61.763 79 79 61.763 79 40.5C79 32.1366 76.3333 24.396 71.8037 18.0823" stroke="#FFB617" stroke-width="3" stroke-linecap="round" stroke-linejoin="round"/>
<circle cx="40.5" cy="40.5" r="31.5" stroke="#FFB617" stroke-width="3"/>
</svg>
