<svg width="82" height="82" viewBox="0 0 82 82" fill="none" xmlns="http://www.w3.org/2000/svg">
<path d="M69.6436 11.6642C68.974 11.0106 67.9016 11.0232 67.2477 11.6927C66.5941 12.3621 66.6067 13.4347 67.2762 14.0885C74.586 21.2265 78.6117 30.784 78.6117 41C78.6117 61.7391 61.7393 78.6116 41.0002 78.6116C20.261 78.6116 3.38843 61.7391 3.38843 41C3.38843 20.2609 20.2609 3.38843 41 3.38843C46.4594 3.38843 51.7234 4.53146 56.6457 6.78614C57.4963 7.1758 58.5019 6.802 58.8915 5.95125C59.2812 5.10034 58.9074 4.09504 58.0566 3.70537C52.6885 1.24666 46.95 0 41 0C30.0479 0 19.7516 4.26464 12.008 12.0082C4.26448 19.7519 0 30.0479 0 41C0 51.9521 4.26448 62.2482 12.008 69.9918C19.7516 77.7354 30.0479 82 41 82C51.9521 82 62.2484 77.7354 69.992 69.9918C77.7355 62.2482 82 51.9521 82 41C82 29.8635 77.6119 19.4451 69.6436 11.6642Z" fill="#FFB617"/>
<path d="M64.9565 7.72274C64.6085 7.47178 64.2514 7.22273 63.8953 6.98266C63.1192 6.46007 62.0667 6.66491 61.5436 7.44038C61.0204 8.21618 61.2254 9.26905 62.0013 9.79212C62.3279 10.0122 62.6551 10.2404 62.9741 10.4707C63.2739 10.6869 63.6205 10.791 63.9639 10.791C64.4898 10.791 65.0083 10.5469 65.3395 10.0878C65.8869 9.32911 65.7154 8.27015 64.9565 7.72274Z" fill="#FFB617"/>
<path d="M18.5237 28.4473C14.2094 28.4473 10.6992 31.9574 10.6992 36.2719C10.6992 37.2073 11.4577 37.9662 12.3935 37.9662C13.3291 37.9662 14.0876 37.2075 14.0876 36.2719C14.0876 33.8258 16.0777 31.8357 18.5237 31.8357C20.9686 31.8357 22.9576 33.8258 22.9576 36.2719C22.9576 37.2073 23.7161 37.9662 24.6517 37.9662C25.5873 37.9662 26.3458 37.2075 26.3458 36.2719C26.346 31.9573 22.837 28.4473 18.5237 28.4473Z" fill="#FFB617"/>
<path d="M63.4786 28.4473C59.1653 28.4473 55.6562 31.9574 55.6562 36.2719C55.6562 37.2073 56.4148 37.9662 57.3504 37.9662C58.286 37.9662 59.0445 37.2075 59.0445 36.2719C59.0445 33.8258 61.0335 31.8357 63.4784 31.8357C65.9243 31.8357 67.9145 33.8258 67.9145 36.2719C67.9145 37.2073 68.673 37.9662 69.6086 37.9662C70.5444 37.9662 71.3029 37.2075 71.3029 36.2719C71.303 31.9573 67.7932 28.4473 63.4786 28.4473Z" fill="#FFB617"/>
<path d="M55.2038 44.437H26.9598C26.024 44.437 25.2656 45.1957 25.2656 46.1313V52.8249C25.2656 57.0609 26.9183 61.0401 29.9193 64.0297C32.9036 67.0029 36.8677 68.6402 41.0809 68.6402C45.2674 68.6402 49.2066 67.0224 52.1837 64.0856C52.184 64.0855 52.1844 64.0851 52.1845 64.085C52.1853 64.0843 52.1858 64.0835 52.1868 64.0827C52.2049 64.0648 52.2241 64.0483 52.242 64.0302C55.2445 61.0412 56.8981 57.0618 56.8981 52.8249V46.1313C56.8981 45.1957 56.1396 44.437 55.2038 44.437ZM41.0809 65.2516C38.3694 65.2516 35.7903 64.3874 33.6572 62.7919C35.1918 61.5404 37.9441 59.7409 41.0828 59.7409C44.22 59.7409 46.9711 61.5401 48.5049 62.7917C46.3717 64.3874 43.7925 65.2516 41.0809 65.2516ZM50.9321 60.3988C49.066 58.8165 45.4581 56.3525 41.0809 56.3525C36.7053 56.3525 33.0971 58.8162 31.2303 60.3987C29.9047 58.6821 29.0615 56.6672 28.7705 54.5189H53.3929C53.1017 56.6673 52.2582 58.6823 50.9321 60.3988ZM53.5097 51.1304H28.6539V47.8253H53.5095V51.1304H53.5097Z" fill="#FFB617"/>
</svg>
