<svg width="88" height="88" viewBox="0 0 88 88" fill="none" xmlns="http://www.w3.org/2000/svg">
<path d="M80.8865 78.0369H78.0488V80.8746H80.8865V78.0369Z" fill="#FFB617"/>
<path d="M52.5076 79.4557H49.6699V82.2934H52.5076V79.4557Z" fill="#FFB617"/>
<path d="M87.8802 78.0966C87.6828 76.9032 87.2333 75.7654 86.5617 74.7593V49.6598C86.5514 43.2374 82.6111 37.4756 76.6297 35.1364V29.7959C76.6297 29.0123 75.9944 28.377 75.2109 28.377H67.2852L71.5417 24.1205H80.8863C81.2626 24.1205 81.6234 23.9708 81.8894 23.7048L87.5648 18.0293C87.8309 17.7633 87.9806 17.4026 87.9806 17.0262V9.93196C87.9806 9.55561 87.8309 9.19487 87.5648 8.92883L81.8894 3.25343C81.6234 2.98739 81.2626 2.8377 80.8863 2.8377H75.2109V1.41885C75.2109 0.635291 74.5756 0 73.792 0H53.9281C53.5518 0 53.191 0.149689 52.925 0.415723L41.5742 11.7665L13.5192 39.8215L5.45305 41.1666V41.1907C5.16254 41.2299 4.8919 41.3601 4.67978 41.5624L0.423226 45.819C-0.130659 46.373 -0.130659 47.2712 0.423226 47.8252L13.1929 60.5949C13.747 61.1488 14.6451 61.1488 15.1991 60.5949L19.4557 56.3383C19.659 56.1262 19.7891 55.8549 19.8274 55.5636H19.8516L21.1966 47.4989L49.2558 19.4482L60.1909 8.51311H73.792C74.5756 8.51311 75.2109 7.87782 75.2109 7.09426V5.67541H80.2989L85.1428 10.5194V16.4388L80.2989 21.2828H70.9543C70.578 21.2828 70.2172 21.4325 69.9512 21.6985L63.2727 28.377H55.347C54.5634 28.377 53.9281 29.0123 53.9281 29.7959V35.1364C47.9468 37.4756 44.0066 43.2374 43.9962 49.6598V80.8745C43.9962 84.7925 47.1724 87.9688 51.0904 87.9688C55.0084 87.9688 58.1847 84.7925 58.1847 80.8745H71.082C71.8491 85.5131 76.2314 88.6516 80.87 87.8845C85.5087 87.1175 88.6472 82.7352 87.8802 78.0966ZM14.2003 57.5855L3.43687 46.8221L5.68716 44.5718L16.4506 55.3352L14.2003 57.5855ZM18.8726 45.819C18.6634 46.0282 18.5251 46.2976 18.4767 46.5894L17.5105 52.3826L8.63979 43.5119L14.4344 42.5457C14.7256 42.4969 14.9945 42.3586 15.2034 42.1498L42.5773 14.7759L46.2465 18.4451L18.8726 45.819ZM48.2527 16.4388L44.5836 12.7697L53.9281 3.42511L57.5973 7.09426L48.2527 16.4388ZM72.3732 5.67541H60.1909L57.3532 2.8377H72.3732V5.67541ZM56.7658 31.2147H73.792V34.3234C72.8565 34.1466 71.9066 34.056 70.9543 34.0524H59.6035C58.6513 34.056 57.7015 34.1466 56.7658 34.3234V31.2147ZM59.6035 36.8901H70.9543C77.455 36.8979 82.9153 41.7814 83.646 48.2409H46.9119C47.6424 41.7814 53.1029 36.8979 59.6035 36.8901ZM46.8339 51.0787H83.724V53.9164H46.8339V51.0787ZM83.724 56.7541V62.4295H75.2109V56.7541H83.724ZM46.8339 56.7541H72.3732V59.5918H46.8339V56.7541ZM46.8339 62.4295H72.3732V63.8483C72.3732 64.6319 73.0085 65.2672 73.792 65.2672H83.724V72.0947C82.8471 71.586 81.8859 71.2391 80.8863 71.0703V69.5237C80.8863 68.7402 80.251 68.1049 79.4674 68.1049H51.0904C50.3069 68.1049 49.6716 68.7402 49.6716 69.5237V73.9222C48.6392 74.141 47.6692 74.5896 46.8339 75.2346V62.4295ZM51.0904 85.1311C48.7396 85.1311 46.8339 83.2254 46.8339 80.8745C46.8339 78.5237 48.7396 76.618 51.0904 76.618C53.4413 76.618 55.347 78.5237 55.347 80.8745C55.347 83.2254 53.4413 85.1311 51.0904 85.1311ZM71.082 78.0368H57.5831C56.6587 75.924 54.7675 74.3902 52.5093 73.9222V70.9426H78.0486V71.0703C74.4837 71.6795 71.6912 74.472 71.082 78.0368ZM79.4674 85.1311C76.333 85.1311 73.792 82.5901 73.792 79.4557C73.792 76.3213 76.333 73.7803 79.4674 73.7803C82.6019 73.7803 85.1428 76.3213 85.1428 79.4557C85.1428 82.5901 82.6019 85.1311 79.4674 85.1311Z" fill="#FFB617"/>
<path d="M8.52287 61.0106C8.52287 58.6597 6.61718 56.754 4.26632 56.754C1.91546 56.754 0.00976562 58.6597 0.00976562 61.0106C0.00976562 63.3614 1.91546 65.2671 4.26632 65.2671C6.61718 65.2671 8.52287 63.3614 8.52287 61.0106ZM2.84747 61.0106C2.84747 60.227 3.48276 59.5917 4.26632 59.5917C5.04988 59.5917 5.68517 60.227 5.68517 61.0106C5.68517 61.7941 5.04988 62.4294 4.26632 62.4294C3.48276 62.4294 2.84747 61.7941 2.84747 61.0106Z" fill="#FFB617"/>
<path d="M5.68517 76.6179C2.55075 76.6179 0.00976562 79.1589 0.00976562 82.2933C0.00976562 85.4277 2.55075 87.9687 5.68517 87.9687C8.81959 87.9687 11.3606 85.4277 11.3606 82.2933C11.3606 79.1589 8.81959 76.6179 5.68517 76.6179ZM5.68517 85.131C4.11787 85.131 2.84747 83.8606 2.84747 82.2933C2.84747 80.726 4.11787 79.4556 5.68517 79.4556C7.25247 79.4556 8.52287 80.726 8.52287 82.2933C8.52287 83.8606 7.25247 85.131 5.68517 85.131Z" fill="#FFB617"/>
<path d="M12.78 65.2671C10.4291 65.2671 8.52344 67.1728 8.52344 69.5236C8.52344 71.8745 10.4291 73.7802 12.78 73.7802C15.1309 73.7802 17.0365 71.8745 17.0365 69.5236C17.0365 67.1728 15.1309 65.2671 12.78 65.2671ZM12.78 70.9425C11.9964 70.9425 11.3611 70.3072 11.3611 69.5236C11.3611 68.7401 11.9964 68.1048 12.78 68.1048C13.5636 68.1048 14.1988 68.7401 14.1988 69.5236C14.1988 70.3072 13.5636 70.9425 12.78 70.9425Z" fill="#FFB617"/>
<path d="M25.5476 69.5237C23.1967 69.5237 21.291 71.4294 21.291 73.7802C21.291 76.1311 23.1967 78.0368 25.5476 78.0368C27.8984 78.0368 29.8041 76.1311 29.8041 73.7802C29.8041 71.4294 27.8984 69.5237 25.5476 69.5237ZM25.5476 75.1991C24.764 75.1991 24.1287 74.5638 24.1287 73.7802C24.1287 72.9967 24.764 72.3614 25.5476 72.3614C26.3311 72.3614 26.9664 72.9967 26.9664 73.7802C26.9664 74.5638 26.3311 75.1991 25.5476 75.1991Z" fill="#FFB617"/>
<path d="M26.9664 53.9165C23.832 53.9165 21.291 56.4575 21.291 59.5919C21.291 62.7263 23.832 65.2673 26.9664 65.2673C30.1009 65.2673 32.6418 62.7263 32.6418 59.5919C32.6418 56.4575 30.1009 53.9165 26.9664 53.9165ZM26.9664 62.4296C25.3991 62.4296 24.1287 61.1592 24.1287 59.5919C24.1287 58.0246 25.3991 56.7542 26.9664 56.7542C28.5337 56.7542 29.8041 58.0246 29.8041 59.5919C29.8041 61.1592 28.5337 62.4296 26.9664 62.4296Z" fill="#FFB617"/>
<path d="M17.035 76.618H14.1973V79.4557H17.035V76.618Z" fill="#FFB617"/>
<path d="M22.7127 80.8745H19.875V83.7122H22.7127V80.8745Z" fill="#FFB617"/>
</svg>
